<svg class="main-svg" xmlns="http://www.w3.org/2000/svg" xmlns:xlink="http://www.w3.org/1999/xlink" width="2200" height="1240" style="" viewBox="0 0 1100 620"><rect x="0" y="0" width="1100" height="620" style="fill: rgb(255, 255, 255); fill-opacity: 1;"/><defs id="defs-a87c48"><g class="clips"><clipPath id="clipa87c48xyplot" class="plotclip"><rect width="988" height="422"/></clipPath><clipPath id="clipa87c48x2yplot" class="plotclip"><rect width="988" height="422"/></clipPath><clipPath class="axesclip" id="clipa87c48x"><rect x="78" y="0" width="988" height="620"/></clipPath><clipPath class="axesclip" id="clipa87c48y"><rect x="0" y="86" width="1100" height="422"/></clipPath><clipPath class="axesclip" id="clipa87c48xy"><rect x="78" y="86" width="988" height="422"/></clipPath><clipPath class="axesclip" id="clipa87c48x2"><rect x="78" y="0" width="988" height="620"/></clipPath><clipPath class="axesclip" id="clipa87c48x2y"><rect x="78" y="86" width="988" height="422"/></clipPath></g><g class="gradients"/><g class="patterns"/></defs><g class="bglayer"/><g class="layer-below"><g class="imagelayer"/><g class="shapelayer"><g class="shape-group" data-index="0" clip-path="url(#clipa87c48x)"><path data-index="0" fill-rule="evenodd" d="M160.32999999999998,508L160.32999999999998,86" style="opacity: 1; stroke: rgb(176, 0, 32); stroke-opacity: 1; fill: rgb(0, 0, 0); fill-opacity: 0; stroke-width: 1.6px;"/></g><g class="shape-group" data-index="1" clip-path="url(#clipa87c48x)"><path data-index="1" fill-rule="evenodd" d="M242.67,508L242.67,86" style="opacity: 1; stroke: rgb(176, 0, 32); stroke-opacity: 1; fill: rgb(0, 0, 0); fill-opacity: 0; stroke-dasharray: 3px, 3px; stroke-width: 0.9px;"/></g><g class="shape-group" data-index="2" clip-path="url(#clipa87c48x)"><path data-index="2" fill-rule="evenodd" d="M325,508L325,86" style="opacity: 1; stroke: rgb(176, 0, 32); stroke-opacity: 1; fill: rgb(0, 0, 0); fill-opacity: 0; stroke-dasharray: 3px, 3px; stroke-width: 0.9px;"/></g></g></g><g class="cartesianlayer"><g class="subplot xy"><g class="layer-subplot"><g class="shapelayer"/><g class="imagelayer"/></g><g class="minor-gridlayer"><g class="x"/><g class="y"/><g class="x2"/></g><g class="gridlayer"><g class="x"><path class="xgrid crisp" transform="translate(178.5,0)" d="M0,86v422" style="stroke: rgb(232, 232, 232); stroke-opacity: 1; stroke-width: 1px;"/><path class="xgrid crisp" transform="translate(279.01,0)" d="M0,86v422" style="stroke: rgb(232, 232, 232); stroke-opacity: 1; stroke-width: 1px;"/><path class="xgrid crisp" transform="translate(379.51,0)" d="M0,86v422" style="stroke: rgb(232, 232, 232); stroke-opacity: 1; stroke-width: 1px;"/><path class="xgrid crisp" transform="translate(480.02,0)" d="M0,86v422" style="stroke: rgb(232, 232, 232); stroke-opacity: 1; stroke-width: 1px;"/><path class="xgrid crisp" transform="translate(580.52,0)" d="M0,86v422" style="stroke: rgb(232, 232, 232); stroke-opacity: 1; stroke-width: 1px;"/><path class="xgrid crisp" transform="translate(681.03,0)" d="M0,86v422" style="stroke: rgb(232, 232, 232); stroke-opacity: 1; stroke-width: 1px;"/><path class="xgrid crisp" transform="translate(781.53,0)" d="M0,86v422" style="stroke: rgb(232, 232, 232); stroke-opacity: 1; stroke-width: 1px;"/><path class="xgrid crisp" transform="translate(882.04,0)" d="M0,86v422" style="stroke: rgb(232, 232, 232); stroke-opacity: 1; stroke-width: 1px;"/><path class="xgrid crisp" transform="translate(982.54,0)" d="M0,86v422" style="stroke: rgb(232, 232, 232); stroke-opacity: 1; stroke-width: 1px;"/></g><g class="y"><path class="ygrid crisp" transform="translate(0,486.9)" d="M78,0h988" style="stroke: rgb(232, 232, 232); stroke-opacity: 1; stroke-width: 1px;"/><path class="ygrid crisp" transform="translate(0,443.04)" d="M78,0h988" style="stroke: rgb(232, 232, 232); stroke-opacity: 1; stroke-width: 1px;"/><path class="ygrid crisp" transform="translate(0,399.18)" d="M78,0h988" style="stroke: rgb(232, 232, 232); stroke-opacity: 1; stroke-width: 1px;"/><path class="ygrid crisp" transform="translate(0,355.32)" d="M78,0h988" style="stroke: rgb(232, 232, 232); stroke-opacity: 1; stroke-width: 1px;"/><path class="ygrid crisp" transform="translate(0,311.46000000000004)" d="M78,0h988" style="stroke: rgb(232, 232, 232); stroke-opacity: 1; stroke-width: 1px;"/><path class="ygrid crisp" transform="translate(0,267.61)" d="M78,0h988" style="stroke: rgb(232, 232, 232); stroke-opacity: 1; stroke-width: 1px;"/><path class="ygrid crisp" transform="translate(0,223.75)" d="M78,0h988" style="stroke: rgb(232, 232, 232); stroke-opacity: 1; stroke-width: 1px;"/><path class="ygrid crisp" transform="translate(0,179.89)" d="M78,0h988" style="stroke: rgb(232, 232, 232); stroke-opacity: 1; stroke-width: 1px;"/><path class="ygrid crisp" transform="translate(0,136.03)" d="M78,0h988" style="stroke: rgb(232, 232, 232); stroke-opacity: 1; stroke-width: 1px;"/><path class="ygrid crisp" transform="translate(0,92.17)" d="M78,0h988" style="stroke: rgb(232, 232, 232); stroke-opacity: 1; stroke-width: 1px;"/></g><g class="x2"/></g><g class="zerolinelayer"/><g class="layer-between"><g class="shapelayer"/><g class="imagelayer"/></g><path class="xlines-below"/><path class="ylines-below"/><g class="overlines-below"><path class="x2y-x"/><path class="x2y-y"/></g><g class="xaxislayer-below"/><g class="yaxislayer-below"/><g class="overaxes-below"><g class="x2y-x"/><g class="x2y-y"/></g><g class="overplot"><g class="xy" transform="translate(78,86)" clip-path="url(#clipa87c48xyplot)"><g class="scatterlayer mlayer"><g class="trace scatter trace1fc5a7" style="stroke-miterlimit: 2; opacity: 0.45;"><g class="fills"/><g class="errorbars"/><g class="lines"><path class="js-line" d="M20.58,400.9L41.17,280.99L61.75,313.72L82.33,316.01L102.92,315.93L144.08,315.66L164.67,312.05L185.25,294.43L205.83,298.57L226.42,287.05L247,294L267.58,268.06L288.17,238.44L308.75,260.62L329.33,272.71L349.92,195.05L370.5,188.37L391.08,212.1L411.67,211.21L432.25,217.16L452.83,217.16L473.42,191.97L494,169.33L514.58,170.24L535.17,179.67L555.75,184.12L576.33,187.11L596.92,193.27L617.5,192.11L638.08,193.1L658.67,163.13L679.25,115.18L699.83,130.11L720.42,155.73L741,144.7L782.17,142.39L802.75,159.23L823.33,186.76L843.92,136.78L864.5,186.09L885.08,107.36L905.67,158.61L926.25,163.85L946.83,159.48L967.42,138.7" style="vector-effect: none; fill: none; stroke: rgb(0, 114, 178); stroke-opacity: 1; stroke-width: 1px; opacity: 1;"/></g><g class="points"/><g class="text"/></g><g class="trace scatter trace5c9c30" style="stroke-miterlimit: 2; opacity: 0.45;"><g class="fills"/><g class="errorbars"/><g class="lines"><path class="js-line" d="M20.58,400.9L41.17,206.98L61.75,231.01L82.33,168.69L102.92,203.55L123.5,210.54L144.08,242.53L164.67,221.32L185.25,235.36L205.83,236.09L226.42,170.37L247,201.54L267.58,159.74L288.17,212.51L308.75,204.53L329.33,216.48L349.92,179.54L370.5,135.68L391.08,153.61L411.67,132.68L432.25,147.88L452.83,162.99L473.42,145.69L494,174.62L514.58,145.74L535.17,153.51L555.75,143.19L576.33,118.98L596.92,127.24L617.5,156.45L638.08,161.83L658.67,175.43L679.25,137.24L699.83,143.68L720.42,138.98L741,141L761.58,137.46L782.17,136.63L802.75,160.88L823.33,147.11L843.92,171.59L864.5,135.86L885.08,123.51L905.67,114.86L926.25,120.56L946.83,138.83L967.42,144.45" style="vector-effect: none; fill: none; stroke: rgb(0, 114, 178); stroke-opacity: 1; stroke-width: 1px; opacity: 1;"/></g><g class="points"/><g class="text"/></g><g class="trace scatter trace5883ab" style="stroke-miterlimit: 2; opacity: 0.45;"><g class="fills"/><g class="errorbars"/><g class="lines"><path class="js-line" d="M20.58,400.9L41.17,279.39L61.75,291.3L82.33,253.94L102.92,252.84L123.5,263.5L144.08,271.71L164.67,280.05L185.25,196.44L205.83,214.39L226.42,186.49L247,198.7L267.58,209.19L288.17,194.69L308.75,218.11L329.33,193.37L349.92,197.09L391.08,187.73L411.67,186.86L432.25,198.27L452.83,180.37L473.42,168.1L494,178.56L514.58,202.36L535.17,198.04L555.75,187.27L576.33,167.91L596.92,209.74L617.5,173L658.67,157.83L679.25,196L699.83,162.03L720.42,176.36L741,170.65L761.58,148.24L782.17,158.98L802.75,156.83L823.33,149.04L843.92,154.48L864.5,146.38L885.08,152.4L905.67,172.5L926.25,146.68L946.83,154.92L967.42,150.32L988,159.87" style="vector-effect: none; fill: none; stroke: rgb(213, 94, 0); stroke-opacity: 1; stroke-width: 1px; opacity: 1;"/></g><g class="points"/><g class="text"/></g><g class="trace scatter traceaa15b3" style="stroke-miterlimit: 2; opacity: 0.45;"><g class="fills"/><g class="errorbars"/><g class="lines"><path class="js-line" d="M20.58,400.9L41.17,284.77L61.75,218.72L82.33,252.21L102.92,212.41L123.5,239.7L144.08,233.17L164.67,195.36L185.25,256.74L205.83,248.73L226.42,223.62L247,182.65L267.58,197.12L288.17,195.33L308.75,204.4L329.33,215.42L349.92,155.04L370.5,183.27L391.08,194.65L411.67,141.67L432.25,178.7L452.83,164.64L473.42,159.64L494,179.54L514.58,161.89L535.17,160.26L555.75,161.55L576.33,168.21L596.92,142.25L617.5,173.54L638.08,153.42L658.67,172.33L679.25,175.65L699.83,156.88L720.42,171.98L741,179.75L761.58,163.6L782.17,145.4L802.75,146.09L823.33,145.15L843.92,109.17L864.5,131.69L885.08,143.53L905.67,138.96L926.25,114.81L946.83,130.59L967.42,161.25L988,146.85" style="vector-effect: none; fill: none; stroke: rgb(213, 94, 0); stroke-opacity: 1; stroke-width: 1px; opacity: 1;"/></g><g class="points"/><g class="text"/></g><g class="trace scatter trace3b9cac" style="stroke-miterlimit: 2; opacity: 0.45;"><g class="fills"/><g class="errorbars"/><g class="lines"><path class="js-line" d="M20.58,400.9L41.17,328.26L61.75,283.59L82.33,305.22L102.92,293.14L123.5,294.17L144.08,239.22L164.67,232.42L185.25,230.53L205.83,207.64L226.42,178.65L247,166.95L267.58,158.35L288.17,166.92L308.75,151.5L329.33,132.62L349.92,138.83L370.5,156.02L391.08,160.73L411.67,103.19L432.25,140.84L452.83,148.73L473.42,159.34L494,134.52L514.58,110.89L535.17,98.73L555.75,141.36L576.33,106.61L596.92,123.89L617.5,74.87L638.08,109.32L679.25,113.89L699.83,105.77L720.42,95.14L741,76.82L782.17,112.03L802.75,94.57L823.33,103.49L843.92,103.91L864.5,104.75L885.08,144.68L905.67,86.42L926.25,86.84L946.83,57.34L967.42,92.85" style="vector-effect: none; fill: none; stroke: rgb(0, 114, 178); stroke-opacity: 1; stroke-width: 1px; opacity: 1;"/></g><g class="points"/><g class="text"/></g><g class="trace scatter tracecd7196" style="stroke-miterlimit: 2; opacity: 0.45;"><g class="fills"/><g class="errorbars"/><g class="lines"><path class="js-line" d="M20.58,400.9L41.17,312.68L61.75,266.06L82.33,225.63L102.92,264.22L123.5,258.79L144.08,247.53L164.67,138.16L185.25,253.1L205.83,229.19L226.42,204.04L247,225.45L267.58,224.45L288.17,221.51L308.75,168.55L329.33,199.66L349.92,167.16L370.5,132.74L391.08,146.85L411.67,157.56L432.25,138.81L452.83,147.01L473.42,128.33L494,142.14L514.58,136.34L535.17,154.38L555.75,117.57L576.33,164.79L596.92,194.42L617.5,164.44L638.08,128.15L658.67,149.57L679.25,147.24L699.83,135.13L720.42,155.46L741,145.12L761.58,80.35L782.17,102.03L802.75,112.96L823.33,125.34L843.92,103.03L864.5,134.51L885.08,112.8L905.67,103.51L926.25,104.04L946.83,87.56L967.42,118.13L988,113.34" style="vector-effect: none; fill: none; stroke: rgb(0, 114, 178); stroke-opacity: 1; stroke-width: 1px; opacity: 1;"/></g><g class="points"/><g class="text"/></g><g class="trace scatter trace19203e" style="stroke-miterlimit: 2; opacity: 0.45;"><g class="fills"/><g class="errorbars"/><g class="lines"><path class="js-line" d="M20.58,400.9L41.17,272.98L61.75,250.04L82.33,288.29L102.92,263.75L123.5,224.04L144.08,192.96L164.67,210.41L185.25,186.61L205.83,125.06L226.42,210.52L247,151.42L267.58,130L288.17,111.5L308.75,182.19L329.33,105.22L349.92,153.22L370.5,116.17L391.08,95.17L411.67,130.8L432.25,57.17L452.83,60.78L473.42,35.63L494,52.25L514.58,23.31L535.17,51.33L555.75,31.56L576.33,40.15L596.92,34.87L617.5,26.52L638.08,35.85L658.67,48.47L679.25,40.73L699.83,29.67L720.42,39.03L741,44.99L761.58,25.5L782.17,39.82L802.75,70.32L823.33,48.95L843.92,44.63L864.5,67.57L885.08,29.98L905.67,46.58L926.25,78.13L946.83,48.17L967.42,69.54L988,87.14" style="vector-effect: none; fill: none; stroke: rgb(213, 94, 0); stroke-opacity: 1; stroke-width: 1px; opacity: 1;"/></g><g class="points"/><g class="text"/></g><g class="trace scatter trace11f842" style="stroke-miterlimit: 2; opacity: 0.45;"><g class="fills"/><g class="errorbars"/><g class="lines"><path class="js-line" d="M20.58,400.9L41.17,218.76L61.75,230.84L82.33,237.51L102.92,198.64L123.5,168.26L144.08,165.7L164.67,90.27L185.25,130.99L205.83,105.09L226.42,96.49L247,57.35L267.58,104.44L288.17,94.93L308.75,77.73L329.33,27.63L349.92,58.67L370.5,60.92L391.08,62.38L411.67,56.66L432.25,45.81L452.83,48.71L473.42,41.83L494,38.98L514.58,45.59L535.17,51.52L555.75,50.15L576.33,29.88L596.92,50.6L617.5,48.18L638.08,31.45L658.67,35.13L679.25,36.88L699.83,29.67L720.42,34.49L761.58,39.89L782.17,50.89L802.75,42.29L823.33,46.54L843.92,33.57L864.5,28.86L885.08,45.89L905.67,48.99L926.25,28.88L946.83,46.82L967.42,56.16L988,22.83" style="vector-effect: none; fill: none; stroke: rgb(213, 94, 0); stroke-opacity: 1; stroke-width: 1px; opacity: 1;"/></g><g class="points"/><g class="text"/></g><g class="trace scatter trace5ac571" style="stroke-miterlimit: 2; opacity: 1;"><g class="fills"><g><path class="js-fill" d="M20.58,400.9L41.17,229.42L61.75,239.74L82.33,185.63L102.92,221.57L123.5,224.75L144.08,225.52L164.67,156.27L185.25,224.89L205.83,204.59L226.42,157.78L247,169.38L267.58,150.31L288.17,179.89L308.75,149.02L329.33,148.83L349.92,146.83L370.5,128.08L391.08,139.19L411.67,106.29L432.25,124.4L452.83,136.71L473.42,129.93L494,135.76L514.58,116.76L535.17,113.13L555.75,119.49L576.33,107.21L596.92,121.05L617.5,97.54L638.08,111.81L658.67,122.96L679.25,112.2L699.83,112.73L720.42,108.35L741,94.13L761.58,83.44L782.17,104.32L802.75,99.22L823.33,105.87L843.92,96.93L864.5,107.24L885.08,105.93L905.67,85.66L926.25,86.46L946.83,65L967.42,100.63ZM967.42,146.44L946.83,156.61L926.25,151.19L905.67,146.04L885.08,138.25L864.5,173.36L843.92,160.72L823.33,175.48L802.75,164.61L782.17,142.22L761.58,144.51L741,159.69L720.42,164.31L699.83,144.61L679.25,144.58L658.67,176.99L638.08,184.4L617.5,196.39L596.92,198.36L576.33,181.54L555.75,173.63L535.17,180.02L514.58,164.85L494,174.55L473.42,182.73L452.83,201.23L432.25,197.95L411.67,196.03L391.08,197.46L370.5,178.32L349.92,193.46L329.33,261.9L308.75,243.58L288.17,239.8L267.58,254.99L247,274.59L226.42,262.27L205.83,281.15L185.25,281.82L164.67,295.71L144.08,296.95L123.5,314.96L102.92,316.86L82.33,322.14L61.75,307.45L41.17,335.04L20.58,400.9Z" style="fill: rgb(0, 114, 178); fill-opacity: 0.15; stroke-width: 0;"/></g></g><g class="errorbars"/><g class="lines"><path class="js-line" d="M20.58,400.9L41.17,229.42L61.75,239.74L82.33,185.63L102.92,221.57L123.5,224.75L144.08,225.52L164.67,156.27L185.25,224.89L205.83,204.59L226.42,157.78L247,169.38L267.58,150.31L288.17,179.89L308.75,149.02L329.33,148.83L349.92,146.83L370.5,128.08L391.08,139.19L411.67,106.29L432.25,124.4L452.83,136.71L473.42,129.93L494,135.76L514.58,116.76L535.17,113.13L555.75,119.49L576.33,107.21L596.92,121.05L617.5,97.54L638.08,111.81L658.67,122.96L679.25,112.2L699.83,112.73L720.42,108.35L741,94.13L761.58,83.44L782.17,104.32L802.75,99.22L823.33,105.87L843.92,96.93L864.5,107.24L885.08,105.93L905.67,85.66L926.25,86.46L946.83,65L967.42,100.63" style="vector-effect: none; fill: none; stroke: rgb(0, 114, 178); stroke-opacity: 1; stroke-width: 0px; opacity: 1;"/><path class="js-line" d="M967.42,146.44L946.83,156.61L926.25,151.19L905.67,146.04L885.08,138.25L864.5,173.36L843.92,160.72L823.33,175.48L802.75,164.61L782.17,142.22L761.58,144.51L741,159.69L720.42,164.31L699.83,144.61L679.25,144.58L658.67,176.99L638.08,184.4L617.5,196.39L596.92,198.36L576.33,181.54L555.75,173.63L535.17,180.02L514.58,164.85L494,174.55L473.42,182.73L452.83,201.23L432.25,197.95L411.67,196.03L391.08,197.46L370.5,178.32L349.92,193.46L329.33,261.9L308.75,243.58L288.17,239.8L267.58,254.99L247,274.59L226.42,262.27L205.83,281.15L185.25,281.82L164.67,295.71L144.08,296.95L123.5,314.96L102.92,316.86L82.33,322.14L61.75,307.45L41.17,335.04L20.58,400.9" style="vector-effect: none; fill: none; stroke: rgb(0, 114, 178); stroke-opacity: 1; stroke-width: 0px; opacity: 1;"/></g><g class="points"/><g class="text"/></g><g class="trace scatter tracedb4e69" style="stroke-miterlimit: 2; opacity: 1;"><g class="fills"/><g class="errorbars"/><g class="lines"><path class="js-line" d="M20.58,400.9L41.17,282.23L61.75,273.59L82.33,253.89L102.92,269.21L123.5,269.86L144.08,261.23L164.67,225.99L185.25,253.36L205.83,242.87L226.42,210.03L247,221.98L267.58,202.65L288.17,209.85L308.75,196.3L329.33,205.37L349.92,170.14L370.5,153.2L391.08,168.32L411.67,151.16L432.25,161.17L452.83,168.97L473.42,156.33L494,155.15L514.58,140.8L535.17,146.57L555.75,146.56L576.33,144.37L596.92,159.71L617.5,146.97L638.08,148.1L658.67,149.98L679.25,128.39L699.83,128.67L720.42,136.33L741,126.91L761.58,113.98L802.75,131.91L823.33,140.68L843.92,128.83L864.5,140.3L885.08,122.09L905.67,115.85L926.25,118.82L946.83,110.8L967.42,123.53L988,113.34" style="vector-effect: none; fill: none; stroke: rgb(0, 114, 178); stroke-opacity: 1; stroke-width: 2.6px; opacity: 1;"/></g><g class="points"/><g class="text"/></g><g class="trace scatter tracec19f0a" style="stroke-miterlimit: 2; opacity: 1;"><g class="fills"><g><path class="js-fill" d="M20.58,400.9L41.17,234.06L61.75,216.58L82.33,236.91L102.92,201.24L123.5,184.21L144.08,170.42L164.67,117.2L185.25,142.22L205.83,105.52L226.42,123.13L247,85.55L267.58,110.26L288.17,96.76L308.75,108.22L329.33,50.94L349.92,83.66L370.5,77.72L391.08,69.98L411.67,76.09L432.25,41.95L452.83,46.53L473.42,30.37L494,36.65L514.58,22.71L535.17,41.46L555.75,31.01L576.33,26.15L596.92,29.03L617.5,27.92L638.08,25.18L658.67,33.24L679.25,28.72L699.83,21.1L720.42,27.68L741,32.31L761.58,24.08L782.17,37.92L802.75,48.72L823.33,41.18L843.92,29.78L864.5,39.63L885.08,30.27L905.67,39.22L926.25,42.52L946.83,40.35L967.42,56.28L988,42.63L988,165.72L967.42,162.35L946.83,149.9L926.25,141.73L905.67,164.3L864.5,147.62L843.92,141.15L823.33,153.66L802.75,159.05L782.17,159.62L761.58,164.54L741,184.16L720.42,183.25L699.83,168.02L679.25,195.91L658.67,173.64L638.08,167.94L617.5,182.7L596.92,189.7L576.33,176.93L555.75,184.26L514.58,193.86L494,188.02L473.42,172.23L452.83,180.72L432.25,198.03L411.67,181.91L391.08,199.99L370.5,198.53L349.92,198.35L329.33,219.88L308.75,233L288.17,201.47L267.58,210.11L247,209.51L226.42,235.43L205.83,241.12L185.25,243.18L164.67,270.84L144.08,261.36L123.5,263.53L102.92,262.58L82.33,279.06L61.75,278.87L41.17,293.89L20.58,400.9Z" style="fill: rgb(213, 94, 0); fill-opacity: 0.15; stroke-width: 0;"/></g></g><g class="errorbars"/><g class="lines"><path class="js-line" d="M20.58,400.9L41.17,234.06L61.75,216.58L82.33,236.91L102.92,201.24L123.5,184.21L144.08,170.42L164.67,117.2L185.25,142.22L205.83,105.52L226.42,123.13L247,85.55L267.58,110.26L288.17,96.76L308.75,108.22L329.33,50.94L349.92,83.66L370.5,77.72L391.08,69.98L411.67,76.09L432.25,41.95L452.83,46.53L473.42,30.37L494,36.65L514.58,22.71L535.17,41.46L555.75,31.01L576.33,26.15L596.92,29.03L617.5,27.92L638.08,25.18L658.67,33.24L679.25,28.72L699.83,21.1L720.42,27.68L741,32.31L761.58,24.08L782.17,37.92L802.75,48.72L823.33,41.18L843.92,29.78L864.5,39.63L885.08,30.27L905.67,39.22L926.25,42.52L946.83,40.35L967.42,56.28L988,42.63L988,165.72L967.42,162.35L946.83,149.9L926.25,141.73L905.67,164.3L864.5,147.62L843.92,141.15L823.33,153.66L802.75,159.05L782.17,159.62L761.58,164.54L741,184.16L720.42,183.25L699.83,168.02L679.25,195.91L658.67,173.64L638.08,167.94L617.5,182.7L596.92,189.7L576.33,176.93L555.75,184.26L514.58,193.86L494,188.02L473.42,172.23L452.83,180.72L432.25,198.03L411.67,181.91L391.08,199.99L370.5,198.53L349.92,198.35L329.33,219.88L308.75,233L288.17,201.47L267.58,210.11L247,209.51L226.42,235.43L205.83,241.12L185.25,243.18L164.67,270.84L144.08,261.36L123.5,263.53L102.92,262.58L82.33,279.06L61.75,278.87L41.17,293.89L20.58,400.9" style="vector-effect: none; fill: none; stroke: rgb(0, 158, 115); stroke-opacity: 1; stroke-width: 0px; opacity: 1;"/></g><g class="points"/><g class="text"/></g><g class="trace scatter trace427874" style="stroke-miterlimit: 2; opacity: 1;"><g class="fills"/><g class="errorbars"/><g class="lines"><path class="js-line" d="M20.58,400.9L41.17,263.97L61.75,247.72L82.33,257.99L102.92,231.91L144.08,215.89L164.67,194.02L185.25,192.7L205.83,173.32L226.42,179.28L247,147.53L267.58,160.19L288.17,149.11L308.75,170.61L329.33,135.41L349.92,141.01L370.5,138.13L391.08,134.98L411.67,129L432.25,119.99L452.83,113.62L473.42,101.3L494,112.33L514.58,108.29L535.17,115.29L555.75,107.63L576.33,101.54L596.92,109.36L617.5,105.31L638.08,96.56L658.67,103.44L679.25,112.31L699.83,94.56L720.42,105.46L741,108.23L761.58,94.31L782.17,98.77L802.75,103.88L823.33,97.42L843.92,85.46L864.5,93.63L885.08,92.95L905.67,101.76L926.25,92.12L946.83,95.13L967.42,109.32L988,104.17" style="vector-effect: none; fill: none; stroke: rgb(213, 94, 0); stroke-opacity: 1; stroke-width: 2.6px; opacity: 1;"/></g><g class="points"/><g class="text"/></g></g></g><g class="x2y" transform="translate(78,86)" clip-path="url(#clipa87c48x2yplot)"><g class="scatterlayer mlayer"><g class="trace scatter trace4e831b" style="stroke-miterlimit: 2; opacity: 1;"><g class="fills"/><g class="errorbars"/><g class="lines"/><g class="points"/><g class="text"/></g></g></g></g><g class="zerolinelayer-above"/><path class="xlines-above crisp" d="" style="fill: none; stroke-width: 1px; stroke: rgb(0, 0, 0); stroke-opacity: 0;"/><path class="ylines-above crisp" d="" style="fill: none; stroke-width: 1px; stroke: rgb(0, 0, 0); stroke-opacity: 0;"/><g class="overlines-above"><path class="x2y-x crisp" d="" style="fill: none; stroke-width: 1px; stroke: rgb(0, 0, 0); stroke-opacity: 0;"/><path class="x2y-y crisp" d="M0,0" style="fill: none;"/></g><g class="xaxislayer-above"><path class="xtick ticks crisp" d="M0,509v5" transform="translate(78,0)" style="stroke: rgb(68, 68, 68); stroke-opacity: 1; stroke-width: 1px;"/><path class="xtick ticks crisp" d="M0,509v5" transform="translate(178.5,0)" style="stroke: rgb(68, 68, 68); stroke-opacity: 1; stroke-width: 1px;"/><path class="xtick ticks crisp" d="M0,509v5" transform="translate(279.01,0)" style="stroke: rgb(68, 68, 68); stroke-opacity: 1; stroke-width: 1px;"/><path class="xtick ticks crisp" d="M0,509v5" transform="translate(379.51,0)" style="stroke: rgb(68, 68, 68); stroke-opacity: 1; stroke-width: 1px;"/><path class="xtick ticks crisp" d="M0,509v5" transform="translate(480.02,0)" style="stroke: rgb(68, 68, 68); stroke-opacity: 1; stroke-width: 1px;"/><path class="xtick ticks crisp" d="M0,509v5" transform="translate(580.52,0)" style="stroke: rgb(68, 68, 68); stroke-opacity: 1; stroke-width: 1px;"/><path class="xtick ticks crisp" d="M0,509v5" transform="translate(681.03,0)" style="stroke: rgb(68, 68, 68); stroke-opacity: 1; stroke-width: 1px;"/><path class="xtick ticks crisp" d="M0,509v5" transform="translate(781.53,0)" style="stroke: rgb(68, 68, 68); stroke-opacity: 1; stroke-width: 1px;"/><path class="xtick ticks crisp" d="M0,509v5" transform="translate(882.04,0)" style="stroke: rgb(68, 68, 68); stroke-opacity: 1; stroke-width: 1px;"/><path class="xtick ticks crisp" d="M0,509v5" transform="translate(982.54,0)" style="stroke: rgb(68, 68, 68); stroke-opacity: 1; stroke-width: 1px;"/><g class="xtick"><text text-anchor="middle" x="0" y="529.6" transform="translate(78,0)" style="font-family: 'DejaVu Sans', 'Segoe UI', Helvetica, Arial, sans-serif; font-size: 13px; fill: rgb(26, 26, 26); fill-opacity: 1; white-space: pre;">0</text></g><g class="xtick"><text text-anchor="middle" x="0" y="529.6" style="font-family: 'DejaVu Sans', 'Segoe UI', Helvetica, Arial, sans-serif; font-size: 13px; fill: rgb(26, 26, 26); fill-opacity: 1; white-space: pre;" transform="translate(178.5,0)">5k</text></g><g class="xtick"><text text-anchor="middle" x="0" y="529.6" style="font-family: 'DejaVu Sans', 'Segoe UI', Helvetica, Arial, sans-serif; font-size: 13px; fill: rgb(26, 26, 26); fill-opacity: 1; white-space: pre;" transform="translate(279.01,0)">10k</text></g><g class="xtick"><text text-anchor="middle" x="0" y="529.6" style="font-family: 'DejaVu Sans', 'Segoe UI', Helvetica, Arial, sans-serif; font-size: 13px; fill: rgb(26, 26, 26); fill-opacity: 1; white-space: pre;" transform="translate(379.51,0)">15k</text></g><g class="xtick"><text text-anchor="middle" x="0" y="529.6" style="font-family: 'DejaVu Sans', 'Segoe UI', Helvetica, Arial, sans-serif; font-size: 13px; fill: rgb(26, 26, 26); fill-opacity: 1; white-space: pre;" transform="translate(480.02,0)">20k</text></g><g class="xtick"><text text-anchor="middle" x="0" y="529.6" style="font-family: 'DejaVu Sans', 'Segoe UI', Helvetica, Arial, sans-serif; font-size: 13px; fill: rgb(26, 26, 26); fill-opacity: 1; white-space: pre;" transform="translate(580.52,0)">25k</text></g><g class="xtick"><text text-anchor="middle" x="0" y="529.6" style="font-family: 'DejaVu Sans', 'Segoe UI', Helvetica, Arial, sans-serif; font-size: 13px; fill: rgb(26, 26, 26); fill-opacity: 1; white-space: pre;" transform="translate(681.03,0)">30k</text></g><g class="xtick"><text text-anchor="middle" x="0" y="529.6" style="font-family: 'DejaVu Sans', 'Segoe UI', Helvetica, Arial, sans-serif; font-size: 13px; fill: rgb(26, 26, 26); fill-opacity: 1; white-space: pre;" transform="translate(781.53,0)">35k</text></g><g class="xtick"><text text-anchor="middle" x="0" y="529.6" style="font-family: 'DejaVu Sans', 'Segoe UI', Helvetica, Arial, sans-serif; font-size: 13px; fill: rgb(26, 26, 26); fill-opacity: 1; white-space: pre;" transform="translate(882.04,0)">40k</text></g><g class="xtick"><text text-anchor="middle" x="0" y="529.6" style="font-family: 'DejaVu Sans', 'Segoe UI', Helvetica, Arial, sans-serif; font-size: 13px; fill: rgb(26, 26, 26); fill-opacity: 1; white-space: pre;" transform="translate(982.54,0)">45k</text></g></g><g class="yaxislayer-above"><path class="ytick ticks crisp" d="M77,0h-5" transform="translate(0,486.9)" style="stroke: rgb(68, 68, 68); stroke-opacity: 1; stroke-width: 1px;"/><path class="ytick ticks crisp" d="M77,0h-5" transform="translate(0,443.04)" style="stroke: rgb(68, 68, 68); stroke-opacity: 1; stroke-width: 1px;"/><path class="ytick ticks crisp" d="M77,0h-5" transform="translate(0,399.18)" style="stroke: rgb(68, 68, 68); stroke-opacity: 1; stroke-width: 1px;"/><path class="ytick ticks crisp" d="M77,0h-5" transform="translate(0,355.32)" style="stroke: rgb(68, 68, 68); stroke-opacity: 1; stroke-width: 1px;"/><path class="ytick ticks crisp" d="M77,0h-5" transform="translate(0,311.46000000000004)" style="stroke: rgb(68, 68, 68); stroke-opacity: 1; stroke-width: 1px;"/><path class="ytick ticks crisp" d="M77,0h-5" transform="translate(0,267.61)" style="stroke: rgb(68, 68, 68); stroke-opacity: 1; stroke-width: 1px;"/><path class="ytick ticks crisp" d="M77,0h-5" transform="translate(0,223.75)" style="stroke: rgb(68, 68, 68); stroke-opacity: 1; stroke-width: 1px;"/><path class="ytick ticks crisp" d="M77,0h-5" transform="translate(0,179.89)" style="stroke: rgb(68, 68, 68); stroke-opacity: 1; stroke-width: 1px;"/><path class="ytick ticks crisp" d="M77,0h-5" transform="translate(0,136.03)" style="stroke: rgb(68, 68, 68); stroke-opacity: 1; stroke-width: 1px;"/><path class="ytick ticks crisp" d="M77,0h-5" transform="translate(0,92.17)" style="stroke: rgb(68, 68, 68); stroke-opacity: 1; stroke-width: 1px;"/><g class="ytick"><text text-anchor="end" x="69.4" y="4.55" transform="translate(0,486.9)" style="font-family: 'DejaVu Sans', 'Segoe UI', Helvetica, Arial, sans-serif; font-size: 13px; fill: rgb(26, 26, 26); fill-opacity: 1; white-space: pre;">0</text></g><g class="ytick"><text text-anchor="end" x="69.4" y="4.55" style="font-family: 'DejaVu Sans', 'Segoe UI', Helvetica, Arial, sans-serif; font-size: 13px; fill: rgb(26, 26, 26); fill-opacity: 1; white-space: pre;" transform="translate(0,443.04)">0.05</text></g><g class="ytick"><text text-anchor="end" x="69.4" y="4.55" style="font-family: 'DejaVu Sans', 'Segoe UI', Helvetica, Arial, sans-serif; font-size: 13px; fill: rgb(26, 26, 26); fill-opacity: 1; white-space: pre;" transform="translate(0,399.18)">0.1</text></g><g class="ytick"><text text-anchor="end" x="69.4" y="4.55" style="font-family: 'DejaVu Sans', 'Segoe UI', Helvetica, Arial, sans-serif; font-size: 13px; fill: rgb(26, 26, 26); fill-opacity: 1; white-space: pre;" transform="translate(0,355.32)">0.15</text></g><g class="ytick"><text text-anchor="end" x="69.4" y="4.55" style="font-family: 'DejaVu Sans', 'Segoe UI', Helvetica, Arial, sans-serif; font-size: 13px; fill: rgb(26, 26, 26); fill-opacity: 1; white-space: pre;" transform="translate(0,311.46000000000004)">0.2</text></g><g class="ytick"><text text-anchor="end" x="69.4" y="4.55" style="font-family: 'DejaVu Sans', 'Segoe UI', Helvetica, Arial, sans-serif; font-size: 13px; fill: rgb(26, 26, 26); fill-opacity: 1; white-space: pre;" transform="translate(0,267.61)">0.25</text></g><g class="ytick"><text text-anchor="end" x="69.4" y="4.55" style="font-family: 'DejaVu Sans', 'Segoe UI', Helvetica, Arial, sans-serif; font-size: 13px; fill: rgb(26, 26, 26); fill-opacity: 1; white-space: pre;" transform="translate(0,223.75)">0.3</text></g><g class="ytick"><text text-anchor="end" x="69.4" y="4.55" style="font-family: 'DejaVu Sans', 'Segoe UI', Helvetica, Arial, sans-serif; font-size: 13px; fill: rgb(26, 26, 26); fill-opacity: 1; white-space: pre;" transform="translate(0,179.89)">0.35</text></g><g class="ytick"><text text-anchor="end" x="69.4" y="4.55" style="font-family: 'DejaVu Sans', 'Segoe UI', Helvetica, Arial, sans-serif; font-size: 13px; fill: rgb(26, 26, 26); fill-opacity: 1; white-space: pre;" transform="translate(0,136.03)">0.4</text></g><g class="ytick"><text text-anchor="end" x="69.4" y="4.55" style="font-family: 'DejaVu Sans', 'Segoe UI', Helvetica, Arial, sans-serif; font-size: 13px; fill: rgb(26, 26, 26); fill-opacity: 1; white-space: pre;" transform="translate(0,92.17)">0.45</text></g></g><g class="overaxes-above"><g class="x2y-x"><path class="x2tick ticks crisp" d="M0,85v-5" transform="translate(78,0)" style="stroke: rgb(68, 68, 68); stroke-opacity: 1; stroke-width: 1px;"/><path class="x2tick ticks crisp" d="M0,85v-5" transform="translate(242.67,0)" style="stroke: rgb(68, 68, 68); stroke-opacity: 1; stroke-width: 1px;"/><path class="x2tick ticks crisp" d="M0,85v-5" transform="translate(407.33,0)" style="stroke: rgb(68, 68, 68); stroke-opacity: 1; stroke-width: 1px;"/><path class="x2tick ticks crisp" d="M0,85v-5" transform="translate(572,0)" style="stroke: rgb(68, 68, 68); stroke-opacity: 1; stroke-width: 1px;"/><path class="x2tick ticks crisp" d="M0,85v-5" transform="translate(736.67,0)" style="stroke: rgb(68, 68, 68); stroke-opacity: 1; stroke-width: 1px;"/><path class="x2tick ticks crisp" d="M0,85v-5" transform="translate(901.33,0)" style="stroke: rgb(68, 68, 68); stroke-opacity: 1; stroke-width: 1px;"/><path class="x2tick ticks crisp" d="M0,85v-5" transform="translate(1066,0)" style="stroke: rgb(68, 68, 68); stroke-opacity: 1; stroke-width: 1px;"/><g class="x2tick"><text text-anchor="middle" x="0" y="74.80000000000001" transform="translate(78,0)" style="font-family: 'DejaVu Sans', 'Segoe UI', Helvetica, Arial, sans-serif; font-size: 13px; fill: rgb(26, 26, 26); fill-opacity: 1; white-space: pre;">0</text></g><g class="x2tick"><text text-anchor="middle" x="0" y="74.80000000000001" style="font-family: 'DejaVu Sans', 'Segoe UI', Helvetica, Arial, sans-serif; font-size: 13px; fill: rgb(26, 26, 26); fill-opacity: 1; white-space: pre;" transform="translate(242.67,0)">2</text></g><g class="x2tick"><text text-anchor="middle" x="0" y="74.80000000000001" style="font-family: 'DejaVu Sans', 'Segoe UI', Helvetica, Arial, sans-serif; font-size: 13px; fill: rgb(26, 26, 26); fill-opacity: 1; white-space: pre;" transform="translate(407.33,0)">4</text></g><g class="x2tick"><text text-anchor="middle" x="0" y="74.80000000000001" style="font-family: 'DejaVu Sans', 'Segoe UI', Helvetica, Arial, sans-serif; font-size: 13px; fill: rgb(26, 26, 26); fill-opacity: 1; white-space: pre;" transform="translate(572,0)">6</text></g><g class="x2tick"><text text-anchor="middle" x="0" y="74.80000000000001" style="font-family: 'DejaVu Sans', 'Segoe UI', Helvetica, Arial, sans-serif; font-size: 13px; fill: rgb(26, 26, 26); fill-opacity: 1; white-space: pre;" transform="translate(736.67,0)">8</text></g><g class="x2tick"><text text-anchor="middle" x="0" y="74.80000000000001" style="font-family: 'DejaVu Sans', 'Segoe UI', Helvetica, Arial, sans-serif; font-size: 13px; fill: rgb(26, 26, 26); fill-opacity: 1; white-space: pre;" transform="translate(901.33,0)">10</text></g><g class="x2tick"><text text-anchor="middle" x="0" y="74.80000000000001" style="font-family: 'DejaVu Sans', 'Segoe UI', Helvetica, Arial, sans-serif; font-size: 13px; fill: rgb(26, 26, 26); fill-opacity: 1; white-space: pre;" transform="translate(1066,0)">12</text></g></g><g class="x2y-y"/></g></g><g class="subplot x2y"/></g><g class="polarlayer"/><g class="smithlayer"/><g class="ternarylayer"/><g class="geolayer"/><g class="funnelarealayer"/><g class="pielayer"/><g class="iciclelayer"/><g class="treemaplayer"/><g class="sunburstlayer"/><g class="glimages"/><defs id="topdefs-a87c48"><g class="clips"/><clipPath id="legenda87c48"><rect width="266" height="30" x="1" y="1"/></clipPath></defs><g class="layer-above"><g class="imagelayer"/><g class="shapelayer"/></g><g class="infolayer"><g class="legend" pointer-events="all" transform="translate(78,575.52)"><rect class="bg" shape-rendering="crispEdges" style="stroke: rgb(204, 204, 204); stroke-opacity: 1; fill: rgb(255, 255, 255); fill-opacity: 0.85; stroke-width: 1px;" width="267" height="31" x="0.5" y="0.5"/><g class="scrollbox" transform="" clip-path="url(#legenda87c48)"><g class="groups" transform=""><g class="traces" transform="translate(0,15.950000000000001)" style="opacity: 1;"><text class="legendtext" text-anchor="start" x="40" y="5.07" style="font-family: 'DejaVu Sans', 'Segoe UI', Helvetica, Arial, sans-serif; font-size: 13px; fill: rgb(26, 26, 26); fill-opacity: 1; white-space: pre;">physics (n=4)</text><g class="layers" style="opacity: 1;"><g class="legendfill"/><g class="legendlines"><path class="js-line" d="M5,0h30" style="fill: none; stroke: rgb(0, 114, 178); stroke-opacity: 1; stroke-width: 2.6px;"/></g><g class="legendsymbols"><g class="legendpoints"/></g></g><rect class="legendtoggle" x="0" y="-9.950000000000001" width="132.671875" height="19.900000000000002" style="fill: rgb(0, 0, 0); fill-opacity: 0;"/></g></g><g class="groups" transform="translate(135.171875,0)"><g class="traces" transform="translate(0,15.950000000000001)" style="opacity: 1;"><text class="legendtext" text-anchor="start" x="40" y="5.07" style="font-family: 'DejaVu Sans', 'Segoe UI', Helvetica, Arial, sans-serif; font-size: 13px; fill: rgb(26, 26, 26); fill-opacity: 1; white-space: pre;">surreal (n=4)</text><g class="layers" style="opacity: 1;"><g class="legendfill"/><g class="legendlines"><path class="js-line" d="M5,0h30" style="fill: none; stroke: rgb(213, 94, 0); stroke-opacity: 1; stroke-width: 2.6px;"/></g><g class="legendsymbols"><g class="legendpoints"/></g></g><rect class="legendtoggle" x="0" y="-9.950000000000001" width="128.953125" height="19.900000000000002" style="fill: rgb(0, 0, 0); fill-opacity: 0;"/></g></g></g><rect class="scrollbar" rx="20" ry="3" width="0" height="0" style="fill: rgb(128, 139, 164); fill-opacity: 1;" x="0" y="0"/></g><g class="g-gtitle"><text class="gtitle" x="0" y="12.399999999999977" text-anchor="start" dy="0.7em" style="opacity: 1; font-family: 'DejaVu Sans', 'Segoe UI', Helvetica, Arial, sans-serif; font-size: 17px; fill: rgb(26, 26, 26); fill-opacity: 1; white-space: pre;">Drift away from the trajectory's own origin</text></g><g class="g-xtitle"><text class="xtitle" x="572" y="566" text-anchor="middle" style="opacity: 1; font-family: 'DejaVu Sans', 'Segoe UI', Helvetica, Arial, sans-serif; font-size: 16px; fill: rgb(26, 26, 26); fill-opacity: 1; white-space: pre;">generated tokens t</text></g><g class="g-x2title"><text class="x2title" x="572" y="36" text-anchor="middle" style="opacity: 1; font-family: 'DejaVu Sans', 'Segoe UI', Helvetica, Arial, sans-serif; font-size: 16px; fill: rgb(26, 26, 26); fill-opacity: 1; white-space: pre;">window turnovers t/W</text></g><g class="g-ytitle" transform="translate(-2.552734375,0)"><text class="ytitle" transform="rotate(-90,36,297)" x="36" y="297" text-anchor="middle" style="opacity: 1; font-family: 'DejaVu Sans', 'Segoe UI', Helvetica, Arial, sans-serif; font-size: 16px; fill: rgb(26, 26, 26); fill-opacity: 1; white-space: pre;">1 − cos(z_k, z_0)</text></g><g class="annotation" data-index="0" style="opacity: 1;"><g class="annotation-text-g" transform="rotate(0,221.32999999999998,76.39000000000004)"><g class="cursor-pointer" transform="translate(160,69)"><rect class="bg" x="0.5" y="0.5" width="121" height="14" style="stroke-width: 1px; stroke: rgb(0, 0, 0); stroke-opacity: 0; fill: rgb(0, 0, 0); fill-opacity: 0;"/><text class="annotation-text" text-anchor="middle" x="60.7265625" y="11" style="font-family: 'DejaVu Sans', 'Segoe UI', Helvetica, Arial, sans-serif; font-size: 10px; fill: rgb(176, 0, 32); fill-opacity: 1; white-space: pre;">context horizon (t = W)</text></g></g></g><g class="annotation" data-index="1" style="opacity: 1;"><g class="annotation-text-g" transform="rotate(0,262.16999999999996,76.39000000000004)"><g class="cursor-pointer" transform="translate(243,69)"><rect class="bg" x="0.5" y="0.5" width="38" height="14" style="stroke-width: 1px; stroke: rgb(0, 0, 0); stroke-opacity: 0; fill: rgb(0, 0, 0); fill-opacity: 0;"/><text class="annotation-text" text-anchor="middle" x="19.4609375" y="11" style="font-family: 'DejaVu Sans', 'Segoe UI', Helvetica, Arial, sans-serif; font-size: 10px; fill: rgb(176, 0, 32); fill-opacity: 1; white-space: pre;">t = 2W</text></g></g></g><g class="annotation" data-index="2" style="opacity: 1;"><g class="annotation-text-g" transform="rotate(0,344.5,76.39000000000004)"><g class="cursor-pointer" transform="translate(325,69)"><rect class="bg" x="0.5" y="0.5" width="38" height="14" style="stroke-width: 1px; stroke: rgb(0, 0, 0); stroke-opacity: 0; fill: rgb(0, 0, 0); fill-opacity: 0;"/><text class="annotation-text" text-anchor="middle" x="19.4609375" y="11" style="font-family: 'DejaVu Sans', 'Segoe UI', Helvetica, Arial, sans-serif; font-size: 10px; fill: rgb(176, 0, 32); fill-opacity: 1; white-space: pre;">t = 3W</text></g></g></g></g></svg>