<svg class="main-svg" xmlns="http://www.w3.org/2000/svg" xmlns:xlink="http://www.w3.org/1999/xlink" width="2200" height="1240" style="" viewBox="0 0 1100 620"><rect x="0" y="0" width="1100" height="620" style="fill: rgb(255, 255, 255); fill-opacity: 1;"/><defs id="defs-807864"><g class="clips"><clipPath id="clip807864xyplot" class="plotclip"><rect width="988" height="422"/></clipPath><clipPath id="clip807864x2yplot" class="plotclip"><rect width="988" height="422"/></clipPath><clipPath class="axesclip" id="clip807864x"><rect x="78" y="0" width="988" height="620"/></clipPath><clipPath class="axesclip" id="clip807864y"><rect x="0" y="86" width="1100" height="422"/></clipPath><clipPath class="axesclip" id="clip807864xy"><rect x="78" y="86" width="988" height="422"/></clipPath><clipPath class="axesclip" id="clip807864x2"><rect x="78" y="0" width="988" height="620"/></clipPath><clipPath class="axesclip" id="clip807864x2y"><rect x="78" y="86" width="988" height="422"/></clipPath></g><g class="gradients"/><g class="patterns"/></defs><g class="bglayer"/><g class="layer-below"><g class="imagelayer"/><g class="shapelayer"><g class="shape-group" data-index="0" clip-path="url(#clip807864x)"><path data-index="0" fill-rule="evenodd" d="M160.32999999999998,508L160.32999999999998,86" style="opacity: 1; stroke: rgb(176, 0, 32); stroke-opacity: 1; fill: rgb(0, 0, 0); fill-opacity: 0; stroke-width: 1.6px;"/></g><g class="shape-group" data-index="1" clip-path="url(#clip807864x)"><path data-index="1" fill-rule="evenodd" d="M242.67,508L242.67,86" style="opacity: 1; stroke: rgb(176, 0, 32); stroke-opacity: 1; fill: rgb(0, 0, 0); fill-opacity: 0; stroke-dasharray: 3px, 3px; stroke-width: 0.9px;"/></g><g class="shape-group" data-index="2" clip-path="url(#clip807864x)"><path data-index="2" fill-rule="evenodd" d="M325,508L325,86" style="opacity: 1; stroke: rgb(176, 0, 32); stroke-opacity: 1; fill: rgb(0, 0, 0); fill-opacity: 0; stroke-dasharray: 3px, 3px; stroke-width: 0.9px;"/></g></g></g><g class="cartesianlayer"><g class="subplot xy"><g class="layer-subplot"><g class="shapelayer"/><g class="imagelayer"/></g><g class="minor-gridlayer"><g class="x"/><g class="y"/><g class="x2"/></g><g class="gridlayer"><g class="x"><path class="xgrid crisp" transform="translate(178.5,0)" d="M0,86v422" style="stroke: rgb(232, 232, 232); stroke-opacity: 1; stroke-width: 1px;"/><path class="xgrid crisp" transform="translate(279.01,0)" d="M0,86v422" style="stroke: rgb(232, 232, 232); stroke-opacity: 1; stroke-width: 1px;"/><path class="xgrid crisp" transform="translate(379.51,0)" d="M0,86v422" style="stroke: rgb(232, 232, 232); stroke-opacity: 1; stroke-width: 1px;"/><path class="xgrid crisp" transform="translate(480.02,0)" d="M0,86v422" style="stroke: rgb(232, 232, 232); stroke-opacity: 1; stroke-width: 1px;"/><path class="xgrid crisp" transform="translate(580.52,0)" d="M0,86v422" style="stroke: rgb(232, 232, 232); stroke-opacity: 1; stroke-width: 1px;"/><path class="xgrid crisp" transform="translate(681.03,0)" d="M0,86v422" style="stroke: rgb(232, 232, 232); stroke-opacity: 1; stroke-width: 1px;"/><path class="xgrid crisp" transform="translate(781.53,0)" d="M0,86v422" style="stroke: rgb(232, 232, 232); stroke-opacity: 1; stroke-width: 1px;"/><path class="xgrid crisp" transform="translate(882.04,0)" d="M0,86v422" style="stroke: rgb(232, 232, 232); stroke-opacity: 1; stroke-width: 1px;"/><path class="xgrid crisp" transform="translate(982.54,0)" d="M0,86v422" style="stroke: rgb(232, 232, 232); stroke-opacity: 1; stroke-width: 1px;"/></g><g class="y"><path class="ygrid crisp" transform="translate(0,486.9)" d="M78,0h988" style="stroke: rgb(232, 232, 232); stroke-opacity: 1; stroke-width: 1px;"/><path class="ygrid crisp" transform="translate(0,443.83)" d="M78,0h988" style="stroke: rgb(232, 232, 232); stroke-opacity: 1; stroke-width: 1px;"/><path class="ygrid crisp" transform="translate(0,400.76)" d="M78,0h988" style="stroke: rgb(232, 232, 232); stroke-opacity: 1; stroke-width: 1px;"/><path class="ygrid crisp" transform="translate(0,357.69)" d="M78,0h988" style="stroke: rgb(232, 232, 232); stroke-opacity: 1; stroke-width: 1px;"/><path class="ygrid crisp" transform="translate(0,314.62)" d="M78,0h988" style="stroke: rgb(232, 232, 232); stroke-opacity: 1; stroke-width: 1px;"/><path class="ygrid crisp" transform="translate(0,271.55)" d="M78,0h988" style="stroke: rgb(232, 232, 232); stroke-opacity: 1; stroke-width: 1px;"/><path class="ygrid crisp" transform="translate(0,228.48)" d="M78,0h988" style="stroke: rgb(232, 232, 232); stroke-opacity: 1; stroke-width: 1px;"/><path class="ygrid crisp" transform="translate(0,185.42000000000002)" d="M78,0h988" style="stroke: rgb(232, 232, 232); stroke-opacity: 1; stroke-width: 1px;"/><path class="ygrid crisp" transform="translate(0,142.35)" d="M78,0h988" style="stroke: rgb(232, 232, 232); stroke-opacity: 1; stroke-width: 1px;"/><path class="ygrid crisp" transform="translate(0,99.28)" d="M78,0h988" style="stroke: rgb(232, 232, 232); stroke-opacity: 1; stroke-width: 1px;"/></g><g class="x2"/></g><g class="zerolinelayer"/><g class="layer-between"><g class="shapelayer"/><g class="imagelayer"/></g><path class="xlines-below"/><path class="ylines-below"/><g class="overlines-below"><path class="x2y-x"/><path class="x2y-y"/></g><g class="xaxislayer-below"/><g class="yaxislayer-below"/><g class="overaxes-below"><g class="x2y-x"/><g class="x2y-y"/></g><g class="overplot"><g class="xy" transform="translate(78,86)" clip-path="url(#clip807864xyplot)"><g class="scatterlayer mlayer"><g class="trace scatter traceac4807" style="stroke-miterlimit: 2; opacity: 0.45;"><g class="fills"/><g class="errorbars"/><g class="lines"><path class="js-line" d="M20.58,400.9L41.17,343.77L61.75,324.92L82.33,327.31L102.92,327.32L123.5,320.37L144.08,320.95L164.67,322.29L185.25,319.53L329.33,319.53L349.92,317.75L370.5,196.42L391.08,178.96L411.67,201.23L432.25,210.27L926.25,210.27L946.83,190.97L967.42,215.41L988,167.81" style="vector-effect: none; fill: none; stroke: rgb(0, 114, 178); stroke-opacity: 1; stroke-width: 1px; opacity: 1;"/></g><g class="points"/><g class="text"/></g><g class="trace scatter tracec9dd22" style="stroke-miterlimit: 2; opacity: 0.45;"><g class="fills"/><g class="errorbars"/><g class="lines"><path class="js-line" d="M20.58,400.9L41.17,364.33L61.75,350.76L82.33,346.31L102.92,346.31L144.08,349.34L164.67,347.6L185.25,347.6L205.83,349.34L226.42,349.34L247,347.6L267.58,347.6L288.17,349.34L308.75,349.34L329.33,347.6L349.92,347.6L370.5,349.34L391.08,349.34L411.67,347.6L432.25,347.6L452.83,349.34L473.42,349.34L494,347.6L514.58,347.6L535.17,349.34L555.75,349.34L576.33,347.6L596.92,347.6L617.5,349.34L638.08,349.34L658.67,347.6L679.25,347.6L699.83,349.34L720.42,349.34L741,347.6L761.58,347.6L782.17,349.34L802.75,349.34L823.33,347.6L843.92,347.6L864.5,349.34L885.08,349.34L905.67,347.6L926.25,347.6L946.83,349.34L967.42,349.34L988,347.6" style="vector-effect: none; fill: none; stroke: rgb(0, 114, 178); stroke-opacity: 1; stroke-width: 1px; opacity: 1;"/></g><g class="points"/><g class="text"/></g><g class="trace scatter trace421e49" style="stroke-miterlimit: 2; opacity: 0.45;"><g class="fills"/><g class="errorbars"/><g class="lines"><path class="js-line" d="M20.58,400.9L41.17,288.34L61.75,294.36L82.33,259.96L102.92,259L123.5,280.6L144.08,281.47L164.67,271.1L185.25,257.76L205.83,277.05L226.42,284.75L247,263.17L267.58,258.16L288.17,259.29L308.75,258.95L329.33,253.84L349.92,263.11L370.5,256.6L391.08,248.55L411.67,258.72L432.25,246.11L452.83,258.61L473.42,254.41L494,240.4L514.58,259.94L535.17,235.51L555.75,260.39L576.33,248.14L596.92,262.72L617.5,237.08L638.08,235.6L658.67,256.19L679.25,251.16L699.83,256.89L720.42,244.78L741,264.04L761.58,276.23L782.17,255.01L802.75,249.02L823.33,266.5L843.92,257.42L864.5,269.79L885.08,265.03L905.67,250.93L926.25,259.78L946.83,282.13L967.42,279.91L988,268.24" style="vector-effect: none; fill: none; stroke: rgb(213, 94, 0); stroke-opacity: 1; stroke-width: 1px; opacity: 1;"/></g><g class="points"/><g class="text"/></g><g class="trace scatter trace4fb9eb" style="stroke-miterlimit: 2; opacity: 0.45;"><g class="fills"/><g class="errorbars"/><g class="lines"><path class="js-line" d="M20.58,400.9L41.17,288.73L61.75,265.66L82.33,272.43L102.92,231.49L123.5,237.8L144.08,172.18L164.67,209.69L185.25,185.34L205.83,212.47L226.42,196.45L247,219.31L267.58,192.33L288.17,181.14L308.75,219.27L329.33,201.07L349.92,195.07L370.5,191.62L391.08,227.49L411.67,186.44L432.25,187.31L452.83,197.34L473.42,199.89L494,186.39L514.58,196.35L535.17,211.95L555.75,211.91L576.33,186.22L596.92,223.36L617.5,210.27L638.08,200.57L658.67,194.45L679.25,209.82L699.83,206.88L720.42,191.27L741,217.1L761.58,200.52L782.17,215.44L802.75,200.47L823.33,205.91L843.92,206.55L885.08,195.57L905.67,194.87L926.25,189.2L946.83,187.52L967.42,199.2L988,192.96" style="vector-effect: none; fill: none; stroke: rgb(213, 94, 0); stroke-opacity: 1; stroke-width: 1px; opacity: 1;"/></g><g class="points"/><g class="text"/></g><g class="trace scatter trace9d03a9" style="stroke-miterlimit: 2; opacity: 0.45;"><g class="fills"/><g class="errorbars"/><g class="lines"><path class="js-line" d="M20.58,400.9L41.17,291.3L61.75,279.66L82.33,308L102.92,300.92L123.5,309.64L144.08,287.74L164.67,258.01L185.25,287.16L205.83,255.61L226.42,243.07L247,249.91L267.58,257.9L288.17,253.49L308.75,251.24L349.92,246.35L370.5,251.96L391.08,250.99L411.67,248.17L432.25,249.01L452.83,248.99L473.42,246.85L494,251.55L514.58,229.06L535.17,250.13L555.75,252.33L576.33,233.21L596.92,232.39L617.5,237L638.08,246.98L658.67,231.71L679.25,268.08L699.83,250.25L720.42,231.17L741,238.32L761.58,224.91L782.17,255.04L802.75,221.5L823.33,202.17L843.92,248.51L864.5,254.35L885.08,251.55L905.67,263.36L926.25,258.99L946.83,250.73L967.42,244.25" style="vector-effect: none; fill: none; stroke: rgb(0, 114, 178); stroke-opacity: 1; stroke-width: 1px; opacity: 1;"/></g><g class="points"/><g class="text"/></g><g class="trace scatter trace6f8b8b" style="stroke-miterlimit: 2; opacity: 0.45;"><g class="fills"/><g class="errorbars"/><g class="lines"><path class="js-line" d="M20.58,400.9L41.17,186.29L61.75,215.46L82.33,230.48L102.92,212.02L123.5,196.59L144.08,153.08L164.67,144.54L185.25,139.81L205.83,95.51L226.42,114.06L247,114.11L267.58,113.11L288.17,118.33L308.75,91.86L329.33,115.92L349.92,100.63L370.5,91.62L391.08,120.88L411.67,90.58L432.25,77.55L452.83,130.1L473.42,119.7L494,125.59L514.58,96.13L535.17,70.85L555.75,83.03L576.33,129.68L596.92,103.5L617.5,79.52L638.08,77.31L658.67,120.58L679.25,114.48L699.83,78.14L720.42,75.11L741,83.63L761.58,94.97L782.17,67.21L802.75,90.26L823.33,56.87L843.92,36.22L864.5,28L885.08,41.04L905.67,21.1L926.25,33.7L946.83,56.2L967.42,22.12L988,32.29" style="vector-effect: none; fill: none; stroke: rgb(0, 114, 178); stroke-opacity: 1; stroke-width: 1px; opacity: 1;"/></g><g class="points"/><g class="text"/></g><g class="trace scatter tracea10d23" style="stroke-miterlimit: 2; opacity: 0.45;"><g class="fills"/><g class="errorbars"/><g class="lines"><path class="js-line" d="M20.58,400.9L41.17,268.77L61.75,270.82L82.33,261.86L102.92,225.26L123.5,229.78L144.08,218.78L164.67,168.98L185.25,224.26L205.83,187.14L226.42,220.77L247,187.07L267.58,142.13L288.17,157.29L308.75,198.6L329.33,179.23L349.92,190.19L370.5,189.26L391.08,159.29L411.67,194.01L432.25,182.26L452.83,176.88L473.42,211.5L494,204.27L514.58,176.57L535.17,196.57L555.75,177.86L576.33,166.22L596.92,189.09L617.5,176.23L638.08,187.75L658.67,177.48L679.25,184.17L699.83,204.21L720.42,185.66L741,155.91L761.58,176.97L782.17,187.82L802.75,212.72L823.33,218.55L843.92,199.51L864.5,202.62L885.08,180.02L905.67,174.74L926.25,175.14L946.83,188.89L967.42,190.05L988,161.55" style="vector-effect: none; fill: none; stroke: rgb(213, 94, 0); stroke-opacity: 1; stroke-width: 1px; opacity: 1;"/></g><g class="points"/><g class="text"/></g><g class="trace scatter trace85f115" style="stroke-miterlimit: 2; opacity: 0.45;"><g class="fills"/><g class="errorbars"/><g class="lines"><path class="js-line" d="M20.58,400.9L41.17,235.78L61.75,187.13L82.33,198.99L102.92,220.42L123.5,125.72L144.08,95.3L164.67,110.27L185.25,101.59L205.83,116.51L226.42,121L247,120.76L267.58,115.94L288.17,97.14L308.75,82.52L329.33,81.72L349.92,82.03L370.5,89.5L391.08,40.39L411.67,56.53L432.25,36.32L452.83,68.69L473.42,63.39L494,74.85L514.58,76.34L535.17,86.73L555.75,90.85L576.33,96.04L596.92,110.7L617.5,100.45L638.08,92.44L658.67,77.22L679.25,52.94L699.83,98.81L720.42,82.32L741,100.41L761.58,79.59L782.17,85.05L802.75,87.89L823.33,81.9L843.92,89.18L864.5,66.41L885.08,92.79L905.67,89.23L926.25,64.33L946.83,80.88L967.42,72.35L988,88.26" style="vector-effect: none; fill: none; stroke: rgb(213, 94, 0); stroke-opacity: 1; stroke-width: 1px; opacity: 1;"/></g><g class="points"/><g class="text"/></g><g class="trace scatter trace787bee" style="stroke-miterlimit: 2; opacity: 0.45;"><g class="fills"/><g class="errorbars"/><g class="lines"><path class="js-line" d="M20.58,400.9L41.17,331.81L61.75,340.63L82.33,331.26L102.92,330.05L144.08,329.59L164.67,331.6L185.25,170.35L205.83,205.3L226.42,259.59L247,294.22L288.17,294.22L308.75,305.62L329.33,237.59L349.92,294.8L370.5,304.54L391.08,237.59L411.67,294.8L432.25,304.54L452.83,228.74L473.42,283.03L514.58,283.03L535.17,289.84L555.75,253.19L576.33,297.5L596.92,297.5L617.5,316.61L638.08,247.11L658.67,232.11L679.25,234L699.83,238.78L720.42,224.78L741,203.02L761.58,306.45L782.17,236.68L802.75,235.29L823.33,293.3L843.92,238.68L864.5,289.6L885.08,289.6L905.67,303.62L926.25,235.95L946.83,284.55L967.42,284.55" style="vector-effect: none; fill: none; stroke: rgb(0, 114, 178); stroke-opacity: 1; stroke-width: 1px; opacity: 1;"/></g><g class="points"/><g class="text"/></g><g class="trace scatter trace173a57" style="stroke-miterlimit: 2; opacity: 0.45;"><g class="fills"/><g class="errorbars"/><g class="lines"><path class="js-line" d="M20.58,400.9L41.17,285.7L61.75,288.11L82.33,271.57L102.92,300.02L123.5,308.1L144.08,222.84L164.67,219.95L185.25,190.68L205.83,200.15L226.42,190.11L247,190.44L267.58,231.59L288.17,166.32L308.75,148.62L329.33,180.32L349.92,221.23L370.5,190.89L391.08,172.68L411.67,141.01L432.25,155.15L452.83,159.59L473.42,184.06L494,177.69L514.58,178.65L617.5,178.65L638.08,179.98L658.67,180.59L679.25,175.26L699.83,176.23L720.42,161.35L741,163.08L761.58,163.22L782.17,177.18L802.75,177.5L823.33,177.5L843.92,166.57L864.5,177.18L885.08,177.5L905.67,177.5L926.25,166.59L946.83,177.18L967.42,177.5L988,177.5" style="vector-effect: none; fill: none; stroke: rgb(0, 114, 178); stroke-opacity: 1; stroke-width: 1px; opacity: 1;"/></g><g class="points"/><g class="text"/></g><g class="trace scatter traceb9a5fa" style="stroke-miterlimit: 2; opacity: 0.45;"><g class="fills"/><g class="errorbars"/><g class="lines"><path class="js-line" d="M20.58,400.9L41.17,299.73L61.75,308.31L102.92,308.76L123.5,252.9L144.08,251.26L164.67,245.34L185.25,200.56L205.83,207.35L226.42,216.3L247,217.08L267.58,214.32L288.17,204.14L308.75,201.95L329.33,202.01L596.92,201.95L617.5,201.95L988,202.01" style="vector-effect: none; fill: none; stroke: rgb(213, 94, 0); stroke-opacity: 1; stroke-width: 1px; opacity: 1;"/></g><g class="points"/><g class="text"/></g><g class="trace scatter trace6de932" style="stroke-miterlimit: 2; opacity: 0.45;"><g class="fills"/><g class="errorbars"/><g class="lines"><path class="js-line" d="M20.58,400.9L41.17,296.46L61.75,282.03L82.33,281.09L102.92,270.26L123.5,274.02L144.08,274.06L164.67,277.08L185.25,275.06L205.83,274.06L226.42,254.95L247,115.16L267.58,171.1L288.17,228.06L308.75,182.23L349.92,170.88L370.5,212.34L391.08,183.78L411.67,174.65L432.25,156.76L452.83,176.61L473.42,144.07L494,119.29L514.58,186.99L535.17,199.3L555.75,203.75L576.33,202.91L596.92,200.87L617.5,215.98L638.08,210.62L658.67,202.63L679.25,202.35L699.83,199.36L720.42,206.14L741,201.37L761.58,200.73L782.17,197.89L802.75,202.3L823.33,191.12L843.92,207.34L864.5,199.64L885.08,208.35L905.67,201.97L926.25,203.29L946.83,216.13L967.42,184.06L988,201.25" style="vector-effect: none; fill: none; stroke: rgb(213, 94, 0); stroke-opacity: 1; stroke-width: 1px; opacity: 1;"/></g><g class="points"/><g class="text"/></g><g class="trace scatter trace5310e2" style="stroke-miterlimit: 2; opacity: 0.45;"><g class="fills"/><g class="errorbars"/><g class="lines"><path class="js-line" d="M20.58,400.9L41.17,283.22L61.75,279.18L82.33,241.92L102.92,279.93L123.5,274.59L144.08,227.86L164.67,284.78L185.25,244.19L205.83,242.53L226.42,230.9L247,232.64L267.58,260.25L288.17,240.83L308.75,243.42L329.33,245.3L349.92,210.87L370.5,240.34L391.08,251.39L411.67,249.48L432.25,230.58L452.83,241.14L473.42,245L494,231.38L514.58,233.51L535.17,213.85L555.75,218.31L576.33,196.57L596.92,205.32L617.5,187.71L638.08,215.08L658.67,203.95L679.25,145.94L699.83,213.15L720.42,208.64L741,235.36L761.58,223.66L782.17,214.88L802.75,112.22L823.33,49.32L843.92,153.77L864.5,146.41L885.08,150.24L905.67,66.53L926.25,154.33L946.83,125.07L967.42,120.58L988,149.46" style="vector-effect: none; fill: none; stroke: rgb(0, 114, 178); stroke-opacity: 1; stroke-width: 1px; opacity: 1;"/></g><g class="points"/><g class="text"/></g><g class="trace scatter tracedd2d31" style="stroke-miterlimit: 2; opacity: 0.45;"><g class="fills"/><g class="errorbars"/><g class="lines"><path class="js-line" d="M20.58,400.9L41.17,307.02L61.75,328.52L82.33,285.28L102.92,308.43L123.5,269.38L144.08,318.73L164.67,318.65L185.25,266.7L205.83,263.6L226.42,265.92L247,272.89L267.58,269.9L308.75,287.47L329.33,292.89L349.92,296.51L370.5,270.5L391.08,275.6L411.67,304.87L432.25,278.29L452.83,270.78L473.42,280.65L494,265.1L514.58,271.58L535.17,293.08L555.75,288.25L576.33,273.63L596.92,289.25L617.5,283.03L638.08,277.99L658.67,281.07L679.25,248.23L699.83,279.56L720.42,292.67L741,297.04L761.58,283.68L782.17,290.46L802.75,284.38L823.33,268.25L843.92,265.49L864.5,250.83L885.08,283.77L905.67,272.98L926.25,269.52L946.83,284.11L967.42,273.37L988,268.03" style="vector-effect: none; fill: none; stroke: rgb(0, 114, 178); stroke-opacity: 1; stroke-width: 1px; opacity: 1;"/></g><g class="points"/><g class="text"/></g><g class="trace scatter trace0cbd45" style="stroke-miterlimit: 2; opacity: 0.45;"><g class="fills"/><g class="errorbars"/><g class="lines"><path class="js-line" d="M20.58,400.9L41.17,285.57L61.75,243.37L82.33,204.1L102.92,196.36L123.5,207.85L144.08,229.23L164.67,164.28L185.25,114.47L205.83,188.8L226.42,209.01L247,113.37L267.58,133.79L288.17,81.66L308.75,96.31L329.33,129.41L349.92,100.55L370.5,111.62L391.08,143.71L411.67,127.22L432.25,119.1L452.83,110.12L473.42,89.87L494,118.07L514.58,92.02L535.17,82.26L555.75,130.78L576.33,106.69L596.92,100L617.5,94.84L638.08,106.86L658.67,116.03L679.25,101.12L699.83,103.79L720.42,113.13L741,96.41L761.58,114.45L782.17,106.74L802.75,100.43L823.33,89.05L843.92,92.67L864.5,81.12L885.08,86.28L905.67,96.94L926.25,100.34L946.83,88.69L967.42,92.18L988,95.46" style="vector-effect: none; fill: none; stroke: rgb(213, 94, 0); stroke-opacity: 1; stroke-width: 1px; opacity: 1;"/></g><g class="points"/><g class="text"/></g><g class="trace scatter trace69c357" style="stroke-miterlimit: 2; opacity: 0.45;"><g class="fills"/><g class="errorbars"/><g class="lines"><path class="js-line" d="M20.58,400.9L41.17,273.44L61.75,224.44L82.33,299.25L102.92,232.38L123.5,254.55L144.08,229.04L164.67,258.78L185.25,221.44L205.83,236.44L226.42,222.84L247,181.1L267.58,220.83L288.17,169.06L308.75,122.09L329.33,124.58L349.92,139.31L370.5,116.68L391.08,112.69L411.67,124.96L432.25,114.73L452.83,138.65L473.42,106.66L494,125.42L514.58,121.38L535.17,111.55L555.75,121.7L576.33,113.93L596.92,125.11L617.5,124.39L638.08,106.66L658.67,110.68L679.25,100.2L699.83,104.76L720.42,95.52L741,113.91L761.58,103.92L782.17,94.03L802.75,103.88L823.33,103.45L843.92,94.58L864.5,103.59L885.08,92.33L905.67,101.86L926.25,107.17L946.83,94.59L967.42,106.79L988,88.2" style="vector-effect: none; fill: none; stroke: rgb(213, 94, 0); stroke-opacity: 1; stroke-width: 1px; opacity: 1;"/></g><g class="points"/><g class="text"/></g><g class="trace scatter trace98d3a4" style="stroke-miterlimit: 2; opacity: 1;"><g class="fills"><g><path class="js-fill" d="M20.58,400.9L41.17,261.59L61.75,270.15L82.33,263.2L102.92,271.93L123.5,261.64L144.08,229.06L164.67,230.88L185.25,194.75L205.83,187.3L226.42,195.89L247,200.88L267.58,212.87L288.17,199L308.75,188.48L329.33,196.6L349.92,200.28L370.5,182.36L391.08,180.63L411.67,174.79L432.25,172.31L452.83,183.22L473.42,191.55L494,189.65L514.58,179.29L535.17,172.97L555.75,174.59L576.33,184.8L596.92,179.73L617.5,170.5L638.08,170.95L658.67,179.28L679.25,166.74L699.83,169.8L720.42,162.5L741,166.75L761.58,175.87L782.17,167.58L802.75,151.13L823.33,127.07L843.92,144.48L864.5,145.18L885.08,152.17L905.67,128.51L926.25,144.6L946.83,148.38L967.42,139.38L988,104.2L988,276.69L967.42,282.39L946.83,281.16L926.25,274.63L905.67,287.23L885.08,286.16L864.5,281.32L843.92,272.3L823.33,274.26L802.75,269.05L782.17,282.69L761.58,287.82L741,277.83L720.42,275.83L699.83,279.13L679.25,269.22L658.67,272.69L638.08,280.07L617.5,290.03L596.92,286.39L576.33,281.98L555.75,283.75L535.17,291.03L514.58,283.16L494,283.4L473.42,288.16L452.83,276.51L432.25,290.94L411.67,294.65L391.08,278.73L370.5,291.54L349.92,308.66L329.33,300.3L308.75,310.8L288.17,306.17L267.58,310.66L247,304.46L226.42,297.24L205.83,295.59L185.25,296.75L164.67,325.98L144.08,323.47L123.5,327.56L102.92,329.32L82.33,322.33L61.75,331.66L41.17,336.77L20.58,400.9Z" style="fill: rgb(0, 114, 178); fill-opacity: 0.15; stroke-width: 0;"/></g></g><g class="errorbars"/><g class="lines"><path class="js-line" d="M20.58,400.9L41.17,261.59L61.75,270.15L82.33,263.2L102.92,271.93L123.5,261.64L144.08,229.06L164.67,230.88L185.25,194.75L205.83,187.3L226.42,195.89L247,200.88L267.58,212.87L288.17,199L308.75,188.48L329.33,196.6L349.92,200.28L370.5,182.36L391.08,180.63L411.67,174.79L432.25,172.31L452.83,183.22L473.42,191.55L494,189.65L514.58,179.29L535.17,172.97L555.75,174.59L576.33,184.8L596.92,179.73L617.5,170.5L638.08,170.95L658.67,179.28L679.25,166.74L699.83,169.8L720.42,162.5L741,166.75L761.58,175.87L782.17,167.58L802.75,151.13L823.33,127.07L843.92,144.48L864.5,145.18L885.08,152.17L905.67,128.51L926.25,144.6L946.83,148.38L967.42,139.38L988,104.2L988,276.69L967.42,282.39L946.83,281.16L926.25,274.63L905.67,287.23L885.08,286.16L864.5,281.32L843.92,272.3L823.33,274.26L802.75,269.05L782.17,282.69L761.58,287.82L741,277.83L720.42,275.83L699.83,279.13L679.25,269.22L658.67,272.69L638.08,280.07L617.5,290.03L596.92,286.39L576.33,281.98L555.75,283.75L535.17,291.03L514.58,283.16L494,283.4L473.42,288.16L452.83,276.51L432.25,290.94L411.67,294.65L391.08,278.73L370.5,291.54L349.92,308.66L329.33,300.3L308.75,310.8L288.17,306.17L267.58,310.66L247,304.46L226.42,297.24L205.83,295.59L185.25,296.75L164.67,325.98L144.08,323.47L123.5,327.56L102.92,329.32L82.33,322.33L61.75,331.66L41.17,336.77L20.58,400.9" style="vector-effect: none; fill: none; stroke: rgb(0, 114, 178); stroke-opacity: 1; stroke-width: 0px; opacity: 1;"/></g><g class="points"/><g class="text"/></g><g class="trace scatter trace27cfb1" style="stroke-miterlimit: 2; opacity: 1;"><g class="fills"/><g class="errorbars"/><g class="lines"><path class="js-line" d="M20.58,400.9L41.17,299.18L61.75,300.91L82.33,292.76L102.92,300.63L123.5,294.6L144.08,276.26L164.67,278.43L185.25,245.75L205.83,241.44L226.42,246.57L247,252.67L267.58,261.76L288.17,252.59L308.75,249.64L329.33,248.45L349.92,254.47L370.5,236.95L391.08,229.68L411.67,234.72L432.25,231.62L452.83,229.87L473.42,239.86L494,236.52L514.58,231.22L535.17,232L555.75,229.17L576.33,233.39L596.92,233.06L617.5,230.26L638.08,225.51L658.67,225.99L679.25,217.98L699.83,224.46L720.42,219.17L741,222.29L761.58,231.85L782.17,225.13L802.75,210.09L823.33,200.66L843.92,208.39L864.5,213.25L885.08,219.16L905.67,207.87L926.25,209.62L946.83,214.77L967.42,210.89L988,190.45" style="vector-effect: none; fill: none; stroke: rgb(0, 114, 178); stroke-opacity: 1; stroke-width: 2.6px; opacity: 1;"/></g><g class="points"/><g class="text"/></g><g class="trace scatter tracef8832c" style="stroke-miterlimit: 2; opacity: 1;"><g class="fills"><g><path class="js-fill" d="M20.58,400.9L41.17,265.35L61.75,232.05L82.33,232.88L102.92,218.74L123.5,198.77L144.08,176.95L164.67,171.36L185.25,154.38L205.83,176.4L226.42,182.87L247,138.3L267.58,147.08L288.17,130.1L308.75,126.64L329.33,130.92L349.92,127.14L370.5,130.73L391.08,118.35L411.67,123.05L432.25,110.74L452.83,125.17L473.42,111.93L494,119.34L514.58,120.86L535.17,123.06L555.75,135.97L576.33,127.37L596.92,136.28L617.5,131.42L638.08,128.78L658.67,125.55L679.25,115.12L699.83,130.14L720.42,123.77L741,126.12L761.58,124.04L782.17,123.88L802.75,126.78L823.33,122.1L843.92,122.95L864.5,115.52L885.08,119.1L905.67,122.27L926.25,117.19L967.42,117.52L988,116.35L988,208.13L967.42,214.11L946.83,217.69L926.25,208.11L905.67,205.85L885.08,211.48L864.5,215.96L843.92,214.35L823.33,217.51L802.75,212.88L782.17,212.1L761.58,214.55L741,211.65L720.42,206.42L699.83,214.02L679.25,210.81L638.08,206.83L617.5,208.88L596.92,217.18L576.33,203.15L555.75,213.83L535.17,208.4L514.58,207.03L494,198.32L473.42,206.01L452.83,207.04L432.25,200.39L411.67,208.06L391.08,211.11L370.5,211.66L329.33,206.16L308.75,213.83L247,215.96L226.42,248.65L205.83,248.56L185.25,240.74L164.67,255.01L144.08,260.88L123.5,267.04L102.92,267.24L82.33,288.62L61.75,286.98L41.17,293.86L20.58,400.9Z" style="fill: rgb(213, 94, 0); fill-opacity: 0.15; stroke-width: 0;"/></g></g><g class="errorbars"/><g class="lines"><path class="js-line" d="M20.58,400.9L41.17,265.35L61.75,232.05L82.33,232.88L102.92,218.74L123.5,198.77L144.08,176.95L164.67,171.36L185.25,154.38L205.83,176.4L226.42,182.87L247,138.3L267.58,147.08L288.17,130.1L308.75,126.64L329.33,130.92L349.92,127.14L370.5,130.73L391.08,118.35L411.67,123.05L432.25,110.74L452.83,125.17L473.42,111.93L494,119.34L514.58,120.86L535.17,123.06L555.75,135.97L576.33,127.37L596.92,136.28L617.5,131.42L638.08,128.78L658.67,125.55L679.25,115.12L699.83,130.14L720.42,123.77L741,126.12L761.58,124.04L782.17,123.88L802.75,126.78L823.33,122.1L843.92,122.95L864.5,115.52L885.08,119.1L905.67,122.27L926.25,117.19L967.42,117.52L988,116.35L988,208.13L967.42,214.11L946.83,217.69L926.25,208.11L905.67,205.85L885.08,211.48L864.5,215.96L843.92,214.35L823.33,217.51L802.75,212.88L782.17,212.1L761.58,214.55L741,211.65L720.42,206.42L699.83,214.02L679.25,210.81L638.08,206.83L617.5,208.88L596.92,217.18L576.33,203.15L555.75,213.83L535.17,208.4L514.58,207.03L494,198.32L473.42,206.01L452.83,207.04L432.25,200.39L411.67,208.06L391.08,211.11L370.5,211.66L329.33,206.16L308.75,213.83L247,215.96L226.42,248.65L205.83,248.56L185.25,240.74L164.67,255.01L144.08,260.88L123.5,267.04L102.92,267.24L82.33,288.62L61.75,286.98L41.17,293.86L20.58,400.9" style="vector-effect: none; fill: none; stroke: rgb(0, 158, 115); stroke-opacity: 1; stroke-width: 0px; opacity: 1;"/></g><g class="points"/><g class="text"/></g><g class="trace scatter tracefaea15" style="stroke-miterlimit: 2; opacity: 1;"><g class="fills"/><g class="errorbars"/><g class="lines"><path class="js-line" d="M20.58,400.9L41.17,279.6L61.75,259.51L82.33,260.75L102.92,242.99L123.5,232.9L144.08,218.91L164.67,213.19L185.25,197.56L205.83,212.48L226.42,215.76L247,177.13L267.58,181.07L288.17,172.22L308.75,170.24L329.33,168.54L349.92,167.89L370.5,171.2L391.08,164.73L411.67,165.56L432.25,155.57L452.83,166.11L473.42,158.97L494,158.83L514.58,163.94L535.17,165.73L555.75,174.9L576.33,165.26L596.92,176.73L617.5,170.15L638.08,167.81L658.67,167.09L679.25,162.96L699.83,172.08L720.42,165.1L741,168.89L761.58,169.29L782.17,167.99L802.75,169.83L823.33,169.8L843.92,168.65L864.5,165.74L885.08,165.29L926.25,162.65L946.83,167.6L967.42,165.81L988,162.24" style="vector-effect: none; fill: none; stroke: rgb(213, 94, 0); stroke-opacity: 1; stroke-width: 2.6px; opacity: 1;"/></g><g class="points"/><g class="text"/></g></g></g><g class="x2y" transform="translate(78,86)" clip-path="url(#clip807864x2yplot)"><g class="scatterlayer mlayer"><g class="trace scatter trace6603ae" style="stroke-miterlimit: 2; opacity: 1;"><g class="fills"/><g class="errorbars"/><g class="lines"/><g class="points"/><g class="text"/></g></g></g></g><g class="zerolinelayer-above"/><path class="xlines-above crisp" d="" style="fill: none; stroke-width: 1px; stroke: rgb(0, 0, 0); stroke-opacity: 0;"/><path class="ylines-above crisp" d="" style="fill: none; stroke-width: 1px; stroke: rgb(0, 0, 0); stroke-opacity: 0;"/><g class="overlines-above"><path class="x2y-x crisp" d="" style="fill: none; stroke-width: 1px; stroke: rgb(0, 0, 0); stroke-opacity: 0;"/><path class="x2y-y crisp" d="M0,0" style="fill: none;"/></g><g class="xaxislayer-above"><path class="xtick ticks crisp" d="M0,509v5" transform="translate(78,0)" style="stroke: rgb(68, 68, 68); stroke-opacity: 1; stroke-width: 1px;"/><path class="xtick ticks crisp" d="M0,509v5" transform="translate(178.5,0)" style="stroke: rgb(68, 68, 68); stroke-opacity: 1; stroke-width: 1px;"/><path class="xtick ticks crisp" d="M0,509v5" transform="translate(279.01,0)" style="stroke: rgb(68, 68, 68); stroke-opacity: 1; stroke-width: 1px;"/><path class="xtick ticks crisp" d="M0,509v5" transform="translate(379.51,0)" style="stroke: rgb(68, 68, 68); stroke-opacity: 1; stroke-width: 1px;"/><path class="xtick ticks crisp" d="M0,509v5" transform="translate(480.02,0)" style="stroke: rgb(68, 68, 68); stroke-opacity: 1; stroke-width: 1px;"/><path class="xtick ticks crisp" d="M0,509v5" transform="translate(580.52,0)" style="stroke: rgb(68, 68, 68); stroke-opacity: 1; stroke-width: 1px;"/><path class="xtick ticks crisp" d="M0,509v5" transform="translate(681.03,0)" style="stroke: rgb(68, 68, 68); stroke-opacity: 1; stroke-width: 1px;"/><path class="xtick ticks crisp" d="M0,509v5" transform="translate(781.53,0)" style="stroke: rgb(68, 68, 68); stroke-opacity: 1; stroke-width: 1px;"/><path class="xtick ticks crisp" d="M0,509v5" transform="translate(882.04,0)" style="stroke: rgb(68, 68, 68); stroke-opacity: 1; stroke-width: 1px;"/><path class="xtick ticks crisp" d="M0,509v5" transform="translate(982.54,0)" style="stroke: rgb(68, 68, 68); stroke-opacity: 1; stroke-width: 1px;"/><g class="xtick"><text text-anchor="middle" x="0" y="529.6" transform="translate(78,0)" style="font-family: 'DejaVu Sans', 'Segoe UI', Helvetica, Arial, sans-serif; font-size: 13px; fill: rgb(26, 26, 26); fill-opacity: 1; white-space: pre;">0</text></g><g class="xtick"><text text-anchor="middle" x="0" y="529.6" style="font-family: 'DejaVu Sans', 'Segoe UI', Helvetica, Arial, sans-serif; font-size: 13px; fill: rgb(26, 26, 26); fill-opacity: 1; white-space: pre;" transform="translate(178.5,0)">5k</text></g><g class="xtick"><text text-anchor="middle" x="0" y="529.6" style="font-family: 'DejaVu Sans', 'Segoe UI', Helvetica, Arial, sans-serif; font-size: 13px; fill: rgb(26, 26, 26); fill-opacity: 1; white-space: pre;" transform="translate(279.01,0)">10k</text></g><g class="xtick"><text text-anchor="middle" x="0" y="529.6" style="font-family: 'DejaVu Sans', 'Segoe UI', Helvetica, Arial, sans-serif; font-size: 13px; fill: rgb(26, 26, 26); fill-opacity: 1; white-space: pre;" transform="translate(379.51,0)">15k</text></g><g class="xtick"><text text-anchor="middle" x="0" y="529.6" style="font-family: 'DejaVu Sans', 'Segoe UI', Helvetica, Arial, sans-serif; font-size: 13px; fill: rgb(26, 26, 26); fill-opacity: 1; white-space: pre;" transform="translate(480.02,0)">20k</text></g><g class="xtick"><text text-anchor="middle" x="0" y="529.6" style="font-family: 'DejaVu Sans', 'Segoe UI', Helvetica, Arial, sans-serif; font-size: 13px; fill: rgb(26, 26, 26); fill-opacity: 1; white-space: pre;" transform="translate(580.52,0)">25k</text></g><g class="xtick"><text text-anchor="middle" x="0" y="529.6" style="font-family: 'DejaVu Sans', 'Segoe UI', Helvetica, Arial, sans-serif; font-size: 13px; fill: rgb(26, 26, 26); fill-opacity: 1; white-space: pre;" transform="translate(681.03,0)">30k</text></g><g class="xtick"><text text-anchor="middle" x="0" y="529.6" style="font-family: 'DejaVu Sans', 'Segoe UI', Helvetica, Arial, sans-serif; font-size: 13px; fill: rgb(26, 26, 26); fill-opacity: 1; white-space: pre;" transform="translate(781.53,0)">35k</text></g><g class="xtick"><text text-anchor="middle" x="0" y="529.6" style="font-family: 'DejaVu Sans', 'Segoe UI', Helvetica, Arial, sans-serif; font-size: 13px; fill: rgb(26, 26, 26); fill-opacity: 1; white-space: pre;" transform="translate(882.04,0)">40k</text></g><g class="xtick"><text text-anchor="middle" x="0" y="529.6" style="font-family: 'DejaVu Sans', 'Segoe UI', Helvetica, Arial, sans-serif; font-size: 13px; fill: rgb(26, 26, 26); fill-opacity: 1; white-space: pre;" transform="translate(982.54,0)">45k</text></g></g><g class="yaxislayer-above"><path class="ytick ticks crisp" d="M77,0h-5" transform="translate(0,486.9)" style="stroke: rgb(68, 68, 68); stroke-opacity: 1; stroke-width: 1px;"/><path class="ytick ticks crisp" d="M77,0h-5" transform="translate(0,443.83)" style="stroke: rgb(68, 68, 68); stroke-opacity: 1; stroke-width: 1px;"/><path class="ytick ticks crisp" d="M77,0h-5" transform="translate(0,400.76)" style="stroke: rgb(68, 68, 68); stroke-opacity: 1; stroke-width: 1px;"/><path class="ytick ticks crisp" d="M77,0h-5" transform="translate(0,357.69)" style="stroke: rgb(68, 68, 68); stroke-opacity: 1; stroke-width: 1px;"/><path class="ytick ticks crisp" d="M77,0h-5" transform="translate(0,314.62)" style="stroke: rgb(68, 68, 68); stroke-opacity: 1; stroke-width: 1px;"/><path class="ytick ticks crisp" d="M77,0h-5" transform="translate(0,271.55)" style="stroke: rgb(68, 68, 68); stroke-opacity: 1; stroke-width: 1px;"/><path class="ytick ticks crisp" d="M77,0h-5" transform="translate(0,228.48)" style="stroke: rgb(68, 68, 68); stroke-opacity: 1; stroke-width: 1px;"/><path class="ytick ticks crisp" d="M77,0h-5" transform="translate(0,185.42000000000002)" style="stroke: rgb(68, 68, 68); stroke-opacity: 1; stroke-width: 1px;"/><path class="ytick ticks crisp" d="M77,0h-5" transform="translate(0,142.35)" style="stroke: rgb(68, 68, 68); stroke-opacity: 1; stroke-width: 1px;"/><path class="ytick ticks crisp" d="M77,0h-5" transform="translate(0,99.28)" style="stroke: rgb(68, 68, 68); stroke-opacity: 1; stroke-width: 1px;"/><g class="ytick"><text text-anchor="end" x="69.4" y="4.55" transform="translate(0,486.9)" style="font-family: 'DejaVu Sans', 'Segoe UI', Helvetica, Arial, sans-serif; font-size: 13px; fill: rgb(26, 26, 26); fill-opacity: 1; white-space: pre;">0</text></g><g class="ytick"><text text-anchor="end" x="69.4" y="4.55" style="font-family: 'DejaVu Sans', 'Segoe UI', Helvetica, Arial, sans-serif; font-size: 13px; fill: rgb(26, 26, 26); fill-opacity: 1; white-space: pre;" transform="translate(0,443.83)">0.05</text></g><g class="ytick"><text text-anchor="end" x="69.4" y="4.55" style="font-family: 'DejaVu Sans', 'Segoe UI', Helvetica, Arial, sans-serif; font-size: 13px; fill: rgb(26, 26, 26); fill-opacity: 1; white-space: pre;" transform="translate(0,400.76)">0.1</text></g><g class="ytick"><text text-anchor="end" x="69.4" y="4.55" style="font-family: 'DejaVu Sans', 'Segoe UI', Helvetica, Arial, sans-serif; font-size: 13px; fill: rgb(26, 26, 26); fill-opacity: 1; white-space: pre;" transform="translate(0,357.69)">0.15</text></g><g class="ytick"><text text-anchor="end" x="69.4" y="4.55" style="font-family: 'DejaVu Sans', 'Segoe UI', Helvetica, Arial, sans-serif; font-size: 13px; fill: rgb(26, 26, 26); fill-opacity: 1; white-space: pre;" transform="translate(0,314.62)">0.2</text></g><g class="ytick"><text text-anchor="end" x="69.4" y="4.55" style="font-family: 'DejaVu Sans', 'Segoe UI', Helvetica, Arial, sans-serif; font-size: 13px; fill: rgb(26, 26, 26); fill-opacity: 1; white-space: pre;" transform="translate(0,271.55)">0.25</text></g><g class="ytick"><text text-anchor="end" x="69.4" y="4.55" style="font-family: 'DejaVu Sans', 'Segoe UI', Helvetica, Arial, sans-serif; font-size: 13px; fill: rgb(26, 26, 26); fill-opacity: 1; white-space: pre;" transform="translate(0,228.48)">0.3</text></g><g class="ytick"><text text-anchor="end" x="69.4" y="4.55" style="font-family: 'DejaVu Sans', 'Segoe UI', Helvetica, Arial, sans-serif; font-size: 13px; fill: rgb(26, 26, 26); fill-opacity: 1; white-space: pre;" transform="translate(0,185.42000000000002)">0.35</text></g><g class="ytick"><text text-anchor="end" x="69.4" y="4.55" style="font-family: 'DejaVu Sans', 'Segoe UI', Helvetica, Arial, sans-serif; font-size: 13px; fill: rgb(26, 26, 26); fill-opacity: 1; white-space: pre;" transform="translate(0,142.35)">0.4</text></g><g class="ytick"><text text-anchor="end" x="69.4" y="4.55" style="font-family: 'DejaVu Sans', 'Segoe UI', Helvetica, Arial, sans-serif; font-size: 13px; fill: rgb(26, 26, 26); fill-opacity: 1; white-space: pre;" transform="translate(0,99.28)">0.45</text></g></g><g class="overaxes-above"><g class="x2y-x"><path class="x2tick ticks crisp" d="M0,85v-5" transform="translate(78,0)" style="stroke: rgb(68, 68, 68); stroke-opacity: 1; stroke-width: 1px;"/><path class="x2tick ticks crisp" d="M0,85v-5" transform="translate(242.67,0)" style="stroke: rgb(68, 68, 68); stroke-opacity: 1; stroke-width: 1px;"/><path class="x2tick ticks crisp" d="M0,85v-5" transform="translate(407.33,0)" style="stroke: rgb(68, 68, 68); stroke-opacity: 1; stroke-width: 1px;"/><path class="x2tick ticks crisp" d="M0,85v-5" transform="translate(572,0)" style="stroke: rgb(68, 68, 68); stroke-opacity: 1; stroke-width: 1px;"/><path class="x2tick ticks crisp" d="M0,85v-5" transform="translate(736.67,0)" style="stroke: rgb(68, 68, 68); stroke-opacity: 1; stroke-width: 1px;"/><path class="x2tick ticks crisp" d="M0,85v-5" transform="translate(901.33,0)" style="stroke: rgb(68, 68, 68); stroke-opacity: 1; stroke-width: 1px;"/><path class="x2tick ticks crisp" d="M0,85v-5" transform="translate(1066,0)" style="stroke: rgb(68, 68, 68); stroke-opacity: 1; stroke-width: 1px;"/><g class="x2tick"><text text-anchor="middle" x="0" y="74.80000000000001" transform="translate(78,0)" style="font-family: 'DejaVu Sans', 'Segoe UI', Helvetica, Arial, sans-serif; font-size: 13px; fill: rgb(26, 26, 26); fill-opacity: 1; white-space: pre;">0</text></g><g class="x2tick"><text text-anchor="middle" x="0" y="74.80000000000001" style="font-family: 'DejaVu Sans', 'Segoe UI', Helvetica, Arial, sans-serif; font-size: 13px; fill: rgb(26, 26, 26); fill-opacity: 1; white-space: pre;" transform="translate(242.67,0)">2</text></g><g class="x2tick"><text text-anchor="middle" x="0" y="74.80000000000001" style="font-family: 'DejaVu Sans', 'Segoe UI', Helvetica, Arial, sans-serif; font-size: 13px; fill: rgb(26, 26, 26); fill-opacity: 1; white-space: pre;" transform="translate(407.33,0)">4</text></g><g class="x2tick"><text text-anchor="middle" x="0" y="74.80000000000001" style="font-family: 'DejaVu Sans', 'Segoe UI', Helvetica, Arial, sans-serif; font-size: 13px; fill: rgb(26, 26, 26); fill-opacity: 1; white-space: pre;" transform="translate(572,0)">6</text></g><g class="x2tick"><text text-anchor="middle" x="0" y="74.80000000000001" style="font-family: 'DejaVu Sans', 'Segoe UI', Helvetica, Arial, sans-serif; font-size: 13px; fill: rgb(26, 26, 26); fill-opacity: 1; white-space: pre;" transform="translate(736.67,0)">8</text></g><g class="x2tick"><text text-anchor="middle" x="0" y="74.80000000000001" style="font-family: 'DejaVu Sans', 'Segoe UI', Helvetica, Arial, sans-serif; font-size: 13px; fill: rgb(26, 26, 26); fill-opacity: 1; white-space: pre;" transform="translate(901.33,0)">10</text></g><g class="x2tick"><text text-anchor="middle" x="0" y="74.80000000000001" style="font-family: 'DejaVu Sans', 'Segoe UI', Helvetica, Arial, sans-serif; font-size: 13px; fill: rgb(26, 26, 26); fill-opacity: 1; white-space: pre;" transform="translate(1066,0)">12</text></g></g><g class="x2y-y"/></g></g><g class="subplot x2y"/></g><g class="polarlayer"/><g class="smithlayer"/><g class="ternarylayer"/><g class="geolayer"/><g class="funnelarealayer"/><g class="pielayer"/><g class="iciclelayer"/><g class="treemaplayer"/><g class="sunburstlayer"/><g class="glimages"/><defs id="topdefs-807864"><g class="clips"/><clipPath id="legend807864"><rect width="266" height="30" x="1" y="1"/></clipPath></defs><g class="layer-above"><g class="imagelayer"/><g class="shapelayer"/></g><g class="infolayer"><g class="legend" pointer-events="all" transform="translate(78,575.52)"><rect class="bg" shape-rendering="crispEdges" style="stroke: rgb(204, 204, 204); stroke-opacity: 1; fill: rgb(255, 255, 255); fill-opacity: 0.85; stroke-width: 1px;" width="267" height="31" x="0.5" y="0.5"/><g class="scrollbox" transform="" clip-path="url(#legend807864)"><g class="groups" transform=""><g class="traces" transform="translate(0,15.950000000000001)" style="opacity: 1;"><text class="legendtext" text-anchor="start" x="40" y="5.07" style="font-family: 'DejaVu Sans', 'Segoe UI', Helvetica, Arial, sans-serif; font-size: 13px; fill: rgb(26, 26, 26); fill-opacity: 1; white-space: pre;">physics (n=8)</text><g class="layers" style="opacity: 1;"><g class="legendfill"/><g class="legendlines"><path class="js-line" d="M5,0h30" style="fill: none; stroke: rgb(0, 114, 178); stroke-opacity: 1; stroke-width: 2.6px;"/></g><g class="legendsymbols"><g class="legendpoints"/></g></g><rect class="legendtoggle" x="0" y="-9.950000000000001" width="132.671875" height="19.900000000000002" style="fill: rgb(0, 0, 0); fill-opacity: 0;"/></g></g><g class="groups" transform="translate(135.171875,0)"><g class="traces" transform="translate(0,15.950000000000001)" style="opacity: 1;"><text class="legendtext" text-anchor="start" x="40" y="5.07" style="font-family: 'DejaVu Sans', 'Segoe UI', Helvetica, Arial, sans-serif; font-size: 13px; fill: rgb(26, 26, 26); fill-opacity: 1; white-space: pre;">surreal (n=8)</text><g class="layers" style="opacity: 1;"><g class="legendfill"/><g class="legendlines"><path class="js-line" d="M5,0h30" style="fill: none; stroke: rgb(213, 94, 0); stroke-opacity: 1; stroke-width: 2.6px;"/></g><g class="legendsymbols"><g class="legendpoints"/></g></g><rect class="legendtoggle" x="0" y="-9.950000000000001" width="128.953125" height="19.900000000000002" style="fill: rgb(0, 0, 0); fill-opacity: 0;"/></g></g></g><rect class="scrollbar" rx="20" ry="3" width="0" height="0" style="fill: rgb(128, 139, 164); fill-opacity: 1;" x="0" y="0"/></g><g class="g-gtitle"><text class="gtitle" x="0" y="12.399999999999977" text-anchor="start" dy="0.7em" style="opacity: 1; font-family: 'DejaVu Sans', 'Segoe UI', Helvetica, Arial, sans-serif; font-size: 17px; fill: rgb(26, 26, 26); fill-opacity: 1; white-space: pre;">Drift away from the trajectory's own origin</text></g><g class="g-xtitle"><text class="xtitle" x="572" y="566" text-anchor="middle" style="opacity: 1; font-family: 'DejaVu Sans', 'Segoe UI', Helvetica, Arial, sans-serif; font-size: 16px; fill: rgb(26, 26, 26); fill-opacity: 1; white-space: pre;">generated tokens t</text></g><g class="g-x2title"><text class="x2title" x="572" y="36" text-anchor="middle" style="opacity: 1; font-family: 'DejaVu Sans', 'Segoe UI', Helvetica, Arial, sans-serif; font-size: 16px; fill: rgb(26, 26, 26); fill-opacity: 1; white-space: pre;">window turnovers t/W</text></g><g class="g-ytitle" transform="translate(-2.552734375,0)"><text class="ytitle" transform="rotate(-90,36,297)" x="36" y="297" text-anchor="middle" style="opacity: 1; font-family: 'DejaVu Sans', 'Segoe UI', Helvetica, Arial, sans-serif; font-size: 16px; fill: rgb(26, 26, 26); fill-opacity: 1; white-space: pre;">1 − cos(z_k, z_0)</text></g><g class="annotation" data-index="0" style="opacity: 1;"><g class="annotation-text-g" transform="rotate(0,221.32999999999998,76.39000000000004)"><g class="cursor-pointer" transform="translate(160,69)"><rect class="bg" x="0.5" y="0.5" width="121" height="14" style="stroke-width: 1px; stroke: rgb(0, 0, 0); stroke-opacity: 0; fill: rgb(0, 0, 0); fill-opacity: 0;"/><text class="annotation-text" text-anchor="middle" x="60.7265625" y="11" style="font-family: 'DejaVu Sans', 'Segoe UI', Helvetica, Arial, sans-serif; font-size: 10px; fill: rgb(176, 0, 32); fill-opacity: 1; white-space: pre;">context horizon (t = W)</text></g></g></g><g class="annotation" data-index="1" style="opacity: 1;"><g class="annotation-text-g" transform="rotate(0,262.16999999999996,76.39000000000004)"><g class="cursor-pointer" transform="translate(243,69)"><rect class="bg" x="0.5" y="0.5" width="38" height="14" style="stroke-width: 1px; stroke: rgb(0, 0, 0); stroke-opacity: 0; fill: rgb(0, 0, 0); fill-opacity: 0;"/><text class="annotation-text" text-anchor="middle" x="19.4609375" y="11" style="font-family: 'DejaVu Sans', 'Segoe UI', Helvetica, Arial, sans-serif; font-size: 10px; fill: rgb(176, 0, 32); fill-opacity: 1; white-space: pre;">t = 2W</text></g></g></g><g class="annotation" data-index="2" style="opacity: 1;"><g class="annotation-text-g" transform="rotate(0,344.5,76.39000000000004)"><g class="cursor-pointer" transform="translate(325,69)"><rect class="bg" x="0.5" y="0.5" width="38" height="14" style="stroke-width: 1px; stroke: rgb(0, 0, 0); stroke-opacity: 0; fill: rgb(0, 0, 0); fill-opacity: 0;"/><text class="annotation-text" text-anchor="middle" x="19.4609375" y="11" style="font-family: 'DejaVu Sans', 'Segoe UI', Helvetica, Arial, sans-serif; font-size: 10px; fill: rgb(176, 0, 32); fill-opacity: 1; white-space: pre;">t = 3W</text></g></g></g></g></svg>