<svg class="main-svg" xmlns="http://www.w3.org/2000/svg" xmlns:xlink="http://www.w3.org/1999/xlink" width="2200" height="1240" style="" viewBox="0 0 1100 620"><rect x="0" y="0" width="1100" height="620" style="fill: rgb(255, 255, 255); fill-opacity: 1;"/><defs id="defs-8250ea"><g class="clips"><clipPath id="clip8250eaxyplot" class="plotclip"><rect width="988" height="422"/></clipPath><clipPath id="clip8250eax2yplot" class="plotclip"><rect width="988" height="422"/></clipPath><clipPath class="axesclip" id="clip8250eax"><rect x="78" y="0" width="988" height="620"/></clipPath><clipPath class="axesclip" id="clip8250eay"><rect x="0" y="86" width="1100" height="422"/></clipPath><clipPath class="axesclip" id="clip8250eaxy"><rect x="78" y="86" width="988" height="422"/></clipPath><clipPath class="axesclip" id="clip8250eax2"><rect x="78" y="0" width="988" height="620"/></clipPath><clipPath class="axesclip" id="clip8250eax2y"><rect x="78" y="86" width="988" height="422"/></clipPath></g><g class="gradients"/><g class="patterns"/></defs><g class="bglayer"/><g class="layer-below"><g class="imagelayer"/><g class="shapelayer"><g class="shape-group" data-index="0" clip-path="url(#clip8250eax)"><path data-index="0" fill-rule="evenodd" d="M108.88,508L108.88,86" style="opacity: 1; stroke: rgb(176, 0, 32); stroke-opacity: 1; fill: rgb(0, 0, 0); fill-opacity: 0; stroke-width: 1.6px;"/></g><g class="shape-group" data-index="1" clip-path="url(#clip8250eax)"><path data-index="1" fill-rule="evenodd" d="M139.75,508L139.75,86" style="opacity: 1; stroke: rgb(176, 0, 32); stroke-opacity: 1; fill: rgb(0, 0, 0); fill-opacity: 0; stroke-dasharray: 3px, 3px; stroke-width: 0.9px;"/></g><g class="shape-group" data-index="2" clip-path="url(#clip8250eax)"><path data-index="2" fill-rule="evenodd" d="M170.63,508L170.63,86" style="opacity: 1; stroke: rgb(176, 0, 32); stroke-opacity: 1; fill: rgb(0, 0, 0); fill-opacity: 0; stroke-dasharray: 3px, 3px; stroke-width: 0.9px;"/></g></g></g><g class="cartesianlayer"><g class="subplot xy"><g class="layer-subplot"><g class="shapelayer"/><g class="imagelayer"/></g><g class="minor-gridlayer"><g class="x"/><g class="y"/><g class="x2"/></g><g class="gridlayer"><g class="x"><path class="xgrid crisp" transform="translate(266.45,0)" d="M0,86v422" style="stroke: rgb(232, 232, 232); stroke-opacity: 1; stroke-width: 1px;"/><path class="xgrid crisp" transform="translate(454.89,0)" d="M0,86v422" style="stroke: rgb(232, 232, 232); stroke-opacity: 1; stroke-width: 1px;"/><path class="xgrid crisp" transform="translate(643.34,0)" d="M0,86v422" style="stroke: rgb(232, 232, 232); stroke-opacity: 1; stroke-width: 1px;"/><path class="xgrid crisp" transform="translate(831.78,0)" d="M0,86v422" style="stroke: rgb(232, 232, 232); stroke-opacity: 1; stroke-width: 1px;"/><path class="xgrid crisp" transform="translate(1020.23,0)" d="M0,86v422" style="stroke: rgb(232, 232, 232); stroke-opacity: 1; stroke-width: 1px;"/></g><g class="y"><path class="ygrid crisp" transform="translate(0,486.9)" d="M78,0h988" style="stroke: rgb(232, 232, 232); stroke-opacity: 1; stroke-width: 1px;"/><path class="ygrid crisp" transform="translate(0,424.58)" d="M78,0h988" style="stroke: rgb(232, 232, 232); stroke-opacity: 1; stroke-width: 1px;"/><path class="ygrid crisp" transform="translate(0,362.26)" d="M78,0h988" style="stroke: rgb(232, 232, 232); stroke-opacity: 1; stroke-width: 1px;"/><path class="ygrid crisp" transform="translate(0,299.94)" d="M78,0h988" style="stroke: rgb(232, 232, 232); stroke-opacity: 1; stroke-width: 1px;"/><path class="ygrid crisp" transform="translate(0,237.62)" d="M78,0h988" style="stroke: rgb(232, 232, 232); stroke-opacity: 1; stroke-width: 1px;"/><path class="ygrid crisp" transform="translate(0,175.3)" d="M78,0h988" style="stroke: rgb(232, 232, 232); stroke-opacity: 1; stroke-width: 1px;"/><path class="ygrid crisp" transform="translate(0,112.99)" d="M78,0h988" style="stroke: rgb(232, 232, 232); stroke-opacity: 1; stroke-width: 1px;"/></g><g class="x2"/></g><g class="zerolinelayer"/><g class="layer-between"><g class="shapelayer"/><g class="imagelayer"/></g><path class="xlines-below"/><path class="ylines-below"/><g class="overlines-below"><path class="x2y-x"/><path class="x2y-y"/></g><g class="xaxislayer-below"/><g class="yaxislayer-below"/><g class="overaxes-below"><g class="x2y-x"/><g class="x2y-y"/></g><g class="overplot"><g class="xy" transform="translate(78,86)" clip-path="url(#clip8250eaxyplot)"><g class="scatterlayer mlayer"><g class="trace scatter tracedc2c5c" style="stroke-miterlimit: 2; opacity: 0.45;"><g class="fills"/><g class="errorbars"/><g class="lines"><path class="js-line" d="M3.86,400.9L7.72,339.32L11.58,335.6L15.44,328.92L19.3,323.88L23.16,342.62L27.02,313.1L30.88,303.73L34.73,226.44L38.59,198.08L42.45,140.9L46.31,149.78L50.17,153.6L54.03,166.59L57.89,158.27L61.75,155.88L65.61,156.89L69.47,147.89L73.33,239.45L77.19,217.28L81.05,219.42L84.91,223.41L88.77,188.29L92.63,208.58L96.48,214.76L100.34,224.16L104.2,219.59L111.92,196.01L115.78,168.61L119.64,174.47L123.5,152.49L127.36,164.58L131.22,165.75L135.08,183.42L138.94,173.17L142.8,185.5L146.66,183.35L150.52,169.29L154.38,169.35L158.23,187.74L162.09,170.9L165.95,197.4L169.81,180.5L177.53,202.39L181.39,193.09L185.25,199.75L189.11,191.84L192.97,189.6L196.83,174.3L200.69,173.77L204.55,194.43L208.41,184.06L212.27,207.95L216.13,167.68L219.98,192.68L227.7,204.77L231.56,195.87L235.42,212.28L239.28,198.2L243.14,207.27L247,200.38L250.86,203.19L254.72,207.43L258.58,194.55L262.44,236.28L266.3,195.92L270.16,210.03L274.02,238L277.88,219.17L281.73,249.09L285.59,192.18L289.45,194.9L293.31,175.81L297.17,174.76L301.03,169.37L304.89,199L308.75,186.59L312.61,183.03L316.47,185.62L320.33,190.91L324.19,201.21L328.05,194.45L331.91,196.9L335.77,192.09L339.63,205.2L343.48,205.01L347.34,178.75L351.2,185.32L355.06,188.46L358.92,194.35L362.78,193.25L366.64,192.15L370.5,202.83L374.36,195.97L378.22,184.03L382.08,185.66L385.94,178.13L389.8,152.37L393.66,160.48L397.52,198.82L401.38,158.61L405.23,141.37L409.09,186.28L412.95,174.7L416.81,171.86L420.67,149.79L424.53,149.43L428.39,169.98L432.25,169.49L436.11,179.36L439.97,180.72L443.83,164.09L447.69,164.6L451.55,167.09L455.41,160.76L459.27,153.05L463.13,164.9L466.98,163.86L470.84,168.26L474.7,169.29L478.56,149.94L482.42,168.37L486.28,160.31L490.14,172.66L494,169.65L501.72,151.29L505.58,149.54L509.44,156.26L513.3,156.51L517.16,153.89L521.02,147.41L524.88,156.6L528.73,148.88L532.59,153.11L536.45,154.46L540.31,156.37L544.17,167.46L548.03,157.34L551.89,155.89L555.75,156.34L559.61,164.86L563.47,160.4L567.33,173.54L571.19,158.89L575.05,159.13L578.91,167.97L582.77,162.49L586.63,170.16L590.48,167.25L594.34,164.29L598.2,162.47L602.06,160.62L605.92,162.73L609.78,165.11L613.64,170.27L617.5,162.33L621.36,168.71L625.22,167.91L629.08,155.27L632.94,166.91L636.8,155.03L640.66,168.81L644.52,162.52L648.38,176.56L652.23,155.73L656.09,146.83L659.95,163.24L663.81,167.69L667.67,164.27L671.53,155.47L675.39,165.83L679.25,150.54L683.11,160.98L686.97,147.66L690.83,154.07L694.69,151.9L698.55,167.41L702.41,158L706.27,166.28L710.13,156.9L713.98,157.57L717.84,163.51L721.7,166.22L725.56,162.87L729.42,157.59L733.28,168.94L737.14,160.59L741,208.56L744.86,163.08L748.72,162.1L752.58,162.37L756.44,172.11L760.3,155.05L764.16,138.72L768.02,164.38L771.88,175.39L775.73,155.95L779.59,157.89L783.45,169.95L787.31,166.68L791.17,170.09L795.03,184.76L798.89,146.67L802.75,165.84L806.61,167.3L810.47,170.28L814.33,182.07L818.19,38.88L822.05,34.31L829.77,21.1L833.63,43.25L837.48,36.61L841.34,43.67L845.2,48.15L849.06,43.77L852.92,46.85L856.78,29.65L860.64,44.66L864.5,29.77L868.36,46.1L872.22,40.35L876.08,43.99L879.94,37.04L883.8,54.62L887.66,39.68L891.52,34.79L895.38,43.41L899.23,39.54L903.09,47.42L906.95,41.05L910.81,42.96L914.67,44.43L918.53,48.66L926.25,48.79L930.11,57.61L933.97,44.3L937.83,45.48L941.69,41.42L945.55,42.62L949.41,42.34L953.27,44.54L957.13,27.99L960.98,35.31L964.84,47.82L968.7,36.79L976.42,42.07L980.28,31.06L984.14,38.86L988,51.32" style="vector-effect: none; fill: none; stroke: rgb(0, 114, 178); stroke-opacity: 1; stroke-width: 1px; opacity: 1;"/></g><g class="points"/><g class="text"/></g><g class="trace scatter tracec5601c" style="stroke-miterlimit: 2; opacity: 1;"><g class="fills"><g><path class="js-fill" d="M0,0Z" style="stroke-width: 0;"/></g></g><g class="errorbars"/><g class="lines"/><g class="points"/><g class="text"/></g><g class="trace scatter tracedd3c81" style="stroke-miterlimit: 2; opacity: 1;"><g class="fills"/><g class="errorbars"/><g class="lines"><path class="js-line" d="M3.86,400.9L7.72,339.32L11.58,335.6L15.44,328.92L19.3,323.88L23.16,342.62L27.02,313.1L30.88,303.73L34.73,226.44L38.59,198.08L42.45,140.9L46.31,149.78L50.17,153.6L54.03,166.59L57.89,158.27L61.75,155.88L65.61,156.89L69.47,147.89L73.33,239.45L77.19,217.28L81.05,219.42L84.91,223.41L88.77,188.29L92.63,208.58L96.48,214.76L100.34,224.16L104.2,219.59L111.92,196.01L115.78,168.61L119.64,174.47L123.5,152.49L127.36,164.58L131.22,165.75L135.08,183.42L138.94,173.17L142.8,185.5L146.66,183.35L150.52,169.29L154.38,169.35L158.23,187.74L162.09,170.9L165.95,197.4L169.81,180.5L177.53,202.39L181.39,193.09L185.25,199.75L189.11,191.84L192.97,189.6L196.83,174.3L200.69,173.77L204.55,194.43L208.41,184.06L212.27,207.95L216.13,167.68L219.98,192.68L227.7,204.77L231.56,195.87L235.42,212.28L239.28,198.2L243.14,207.27L247,200.38L250.86,203.19L254.72,207.43L258.58,194.55L262.44,236.28L266.3,195.92L270.16,210.03L274.02,238L277.88,219.17L281.73,249.09L285.59,192.18L289.45,194.9L293.31,175.81L297.17,174.76L301.03,169.37L304.89,199L308.75,186.59L312.61,183.03L316.47,185.62L320.33,190.91L324.19,201.21L328.05,194.45L331.91,196.9L335.77,192.09L339.63,205.2L343.48,205.01L347.34,178.75L351.2,185.32L355.06,188.46L358.92,194.35L362.78,193.25L366.64,192.15L370.5,202.83L374.36,195.97L378.22,184.03L382.08,185.66L385.94,178.13L389.8,152.37L393.66,160.48L397.52,198.82L401.38,158.61L405.23,141.37L409.09,186.28L412.95,174.7L416.81,171.86L420.67,149.79L424.53,149.43L428.39,169.98L432.25,169.49L436.11,179.36L439.97,180.72L443.83,164.09L447.69,164.6L451.55,167.09L455.41,160.76L459.27,153.05L463.13,164.9L466.98,163.86L470.84,168.26L474.7,169.29L478.56,149.94L482.42,168.37L486.28,160.31L490.14,172.66L494,169.65L501.72,151.29L505.58,149.54L509.44,156.26L513.3,156.51L517.16,153.89L521.02,147.41L524.88,156.6L528.73,148.88L532.59,153.11L536.45,154.46L540.31,156.37L544.17,167.46L548.03,157.34L551.89,155.89L555.75,156.34L559.61,164.86L563.47,160.4L567.33,173.54L571.19,158.89L575.05,159.13L578.91,167.97L582.77,162.49L586.63,170.16L590.48,167.25L594.34,164.29L598.2,162.47L602.06,160.62L605.92,162.73L609.78,165.11L613.64,170.27L617.5,162.33L621.36,168.71L625.22,167.91L629.08,155.27L632.94,166.91L636.8,155.03L640.66,168.81L644.52,162.52L648.38,176.56L652.23,155.73L656.09,146.83L659.95,163.24L663.81,167.69L667.67,164.27L671.53,155.47L675.39,165.83L679.25,150.54L683.11,160.98L686.97,147.66L690.83,154.07L694.69,151.9L698.55,167.41L702.41,158L706.27,166.28L710.13,156.9L713.98,157.57L717.84,163.51L721.7,166.22L725.56,162.87L729.42,157.59L733.28,168.94L737.14,160.59L741,208.56L744.86,163.08L748.72,162.1L752.58,162.37L756.44,172.11L760.3,155.05L764.16,138.72L768.02,164.38L771.88,175.39L775.73,155.95L779.59,157.89L783.45,169.95L787.31,166.68L791.17,170.09L795.03,184.76L798.89,146.67L802.75,165.84L806.61,167.3L810.47,170.28L814.33,182.07L818.19,38.88L822.05,34.31L829.77,21.1L833.63,43.25L837.48,36.61L841.34,43.67L845.2,48.15L849.06,43.77L852.92,46.85L856.78,29.65L860.64,44.66L864.5,29.77L868.36,46.1L872.22,40.35L876.08,43.99L879.94,37.04L883.8,54.62L887.66,39.68L891.52,34.79L895.38,43.41L899.23,39.54L903.09,47.42L906.95,41.05L910.81,42.96L914.67,44.43L918.53,48.66L926.25,48.79L930.11,57.61L933.97,44.3L937.83,45.48L941.69,41.42L945.55,42.62L949.41,42.34L953.27,44.54L957.13,27.99L960.98,35.31L964.84,47.82L968.7,36.79L976.42,42.07L980.28,31.06L984.14,38.86L988,51.32" style="vector-effect: none; fill: none; stroke: rgb(0, 114, 178); stroke-opacity: 1; stroke-width: 2.6px; opacity: 1;"/></g><g class="points"/><g class="text"/></g></g></g><g class="x2y" transform="translate(78,86)" clip-path="url(#clip8250eax2yplot)"><g class="scatterlayer mlayer"><g class="trace scatter traceb9b961" style="stroke-miterlimit: 2; opacity: 1;"><g class="fills"/><g class="errorbars"/><g class="lines"/><g class="points"/><g class="text"/></g></g></g></g><g class="zerolinelayer-above"/><path class="xlines-above crisp" d="" style="fill: none; stroke-width: 1px; stroke: rgb(0, 0, 0); stroke-opacity: 0;"/><path class="ylines-above crisp" d="" style="fill: none; stroke-width: 1px; stroke: rgb(0, 0, 0); stroke-opacity: 0;"/><g class="overlines-above"><path class="x2y-x crisp" d="" style="fill: none; stroke-width: 1px; stroke: rgb(0, 0, 0); stroke-opacity: 0;"/><path class="x2y-y crisp" d="M0,0" style="fill: none;"/></g><g class="xaxislayer-above"><path class="xtick ticks crisp" d="M0,509v5" transform="translate(78,0)" style="stroke: rgb(68, 68, 68); stroke-opacity: 1; stroke-width: 1px;"/><path class="xtick ticks crisp" d="M0,509v5" transform="translate(266.45,0)" style="stroke: rgb(68, 68, 68); stroke-opacity: 1; stroke-width: 1px;"/><path class="xtick ticks crisp" d="M0,509v5" transform="translate(454.89,0)" style="stroke: rgb(68, 68, 68); stroke-opacity: 1; stroke-width: 1px;"/><path class="xtick ticks crisp" d="M0,509v5" transform="translate(643.34,0)" style="stroke: rgb(68, 68, 68); stroke-opacity: 1; stroke-width: 1px;"/><path class="xtick ticks crisp" d="M0,509v5" transform="translate(831.78,0)" style="stroke: rgb(68, 68, 68); stroke-opacity: 1; stroke-width: 1px;"/><path class="xtick ticks crisp" d="M0,509v5" transform="translate(1020.23,0)" style="stroke: rgb(68, 68, 68); stroke-opacity: 1; stroke-width: 1px;"/><g class="xtick"><text text-anchor="middle" x="0" y="529.6" transform="translate(78,0)" style="font-family: 'DejaVu Sans', 'Segoe UI', Helvetica, Arial, sans-serif; font-size: 13px; fill: rgb(26, 26, 26); fill-opacity: 1; white-space: pre;">0</text></g><g class="xtick"><text text-anchor="middle" x="0" y="529.6" style="font-family: 'DejaVu Sans', 'Segoe UI', Helvetica, Arial, sans-serif; font-size: 13px; fill: rgb(26, 26, 26); fill-opacity: 1; white-space: pre;" transform="translate(266.45,0)">50k</text></g><g class="xtick"><text text-anchor="middle" x="0" y="529.6" style="font-family: 'DejaVu Sans', 'Segoe UI', Helvetica, Arial, sans-serif; font-size: 13px; fill: rgb(26, 26, 26); fill-opacity: 1; white-space: pre;" transform="translate(454.89,0)">100k</text></g><g class="xtick"><text text-anchor="middle" x="0" y="529.6" style="font-family: 'DejaVu Sans', 'Segoe UI', Helvetica, Arial, sans-serif; font-size: 13px; fill: rgb(26, 26, 26); fill-opacity: 1; white-space: pre;" transform="translate(643.34,0)">150k</text></g><g class="xtick"><text text-anchor="middle" x="0" y="529.6" style="font-family: 'DejaVu Sans', 'Segoe UI', Helvetica, Arial, sans-serif; font-size: 13px; fill: rgb(26, 26, 26); fill-opacity: 1; white-space: pre;" transform="translate(831.78,0)">200k</text></g><g class="xtick"><text text-anchor="middle" x="0" y="529.6" style="font-family: 'DejaVu Sans', 'Segoe UI', Helvetica, Arial, sans-serif; font-size: 13px; fill: rgb(26, 26, 26); fill-opacity: 1; white-space: pre;" transform="translate(1020.23,0)">250k</text></g></g><g class="yaxislayer-above"><path class="ytick ticks crisp" d="M77,0h-5" transform="translate(0,486.9)" style="stroke: rgb(68, 68, 68); stroke-opacity: 1; stroke-width: 1px;"/><path class="ytick ticks crisp" d="M77,0h-5" transform="translate(0,424.58)" style="stroke: rgb(68, 68, 68); stroke-opacity: 1; stroke-width: 1px;"/><path class="ytick ticks crisp" d="M77,0h-5" transform="translate(0,362.26)" style="stroke: rgb(68, 68, 68); stroke-opacity: 1; stroke-width: 1px;"/><path class="ytick ticks crisp" d="M77,0h-5" transform="translate(0,299.94)" style="stroke: rgb(68, 68, 68); stroke-opacity: 1; stroke-width: 1px;"/><path class="ytick ticks crisp" d="M77,0h-5" transform="translate(0,237.62)" style="stroke: rgb(68, 68, 68); stroke-opacity: 1; stroke-width: 1px;"/><path class="ytick ticks crisp" d="M77,0h-5" transform="translate(0,175.3)" style="stroke: rgb(68, 68, 68); stroke-opacity: 1; stroke-width: 1px;"/><path class="ytick ticks crisp" d="M77,0h-5" transform="translate(0,112.99)" style="stroke: rgb(68, 68, 68); stroke-opacity: 1; stroke-width: 1px;"/><g class="ytick"><text text-anchor="end" x="69.4" y="4.55" transform="translate(0,486.9)" style="font-family: 'DejaVu Sans', 'Segoe UI', Helvetica, Arial, sans-serif; font-size: 13px; fill: rgb(26, 26, 26); fill-opacity: 1; white-space: pre;">0</text></g><g class="ytick"><text text-anchor="end" x="69.4" y="4.55" style="font-family: 'DejaVu Sans', 'Segoe UI', Helvetica, Arial, sans-serif; font-size: 13px; fill: rgb(26, 26, 26); fill-opacity: 1; white-space: pre;" transform="translate(0,424.58)">0.1</text></g><g class="ytick"><text text-anchor="end" x="69.4" y="4.55" style="font-family: 'DejaVu Sans', 'Segoe UI', Helvetica, Arial, sans-serif; font-size: 13px; fill: rgb(26, 26, 26); fill-opacity: 1; white-space: pre;" transform="translate(0,362.26)">0.2</text></g><g class="ytick"><text text-anchor="end" x="69.4" y="4.55" style="font-family: 'DejaVu Sans', 'Segoe UI', Helvetica, Arial, sans-serif; font-size: 13px; fill: rgb(26, 26, 26); fill-opacity: 1; white-space: pre;" transform="translate(0,299.94)">0.3</text></g><g class="ytick"><text text-anchor="end" x="69.4" y="4.55" style="font-family: 'DejaVu Sans', 'Segoe UI', Helvetica, Arial, sans-serif; font-size: 13px; fill: rgb(26, 26, 26); fill-opacity: 1; white-space: pre;" transform="translate(0,237.62)">0.4</text></g><g class="ytick"><text text-anchor="end" x="69.4" y="4.55" style="font-family: 'DejaVu Sans', 'Segoe UI', Helvetica, Arial, sans-serif; font-size: 13px; fill: rgb(26, 26, 26); fill-opacity: 1; white-space: pre;" transform="translate(0,175.3)">0.5</text></g><g class="ytick"><text text-anchor="end" x="69.4" y="4.55" style="font-family: 'DejaVu Sans', 'Segoe UI', Helvetica, Arial, sans-serif; font-size: 13px; fill: rgb(26, 26, 26); fill-opacity: 1; white-space: pre;" transform="translate(0,112.99)">0.6</text></g></g><g class="overaxes-above"><g class="x2y-x"><path class="x2tick ticks crisp" d="M0,85v-5" transform="translate(78,0)" style="stroke: rgb(68, 68, 68); stroke-opacity: 1; stroke-width: 1px;"/><path class="x2tick ticks crisp" d="M0,85v-5" transform="translate(232.38,0)" style="stroke: rgb(68, 68, 68); stroke-opacity: 1; stroke-width: 1px;"/><path class="x2tick ticks crisp" d="M0,85v-5" transform="translate(386.75,0)" style="stroke: rgb(68, 68, 68); stroke-opacity: 1; stroke-width: 1px;"/><path class="x2tick ticks crisp" d="M0,85v-5" transform="translate(541.13,0)" style="stroke: rgb(68, 68, 68); stroke-opacity: 1; stroke-width: 1px;"/><path class="x2tick ticks crisp" d="M0,85v-5" transform="translate(695.5,0)" style="stroke: rgb(68, 68, 68); stroke-opacity: 1; stroke-width: 1px;"/><path class="x2tick ticks crisp" d="M0,85v-5" transform="translate(849.88,0)" style="stroke: rgb(68, 68, 68); stroke-opacity: 1; stroke-width: 1px;"/><path class="x2tick ticks crisp" d="M0,85v-5" transform="translate(1004.25,0)" style="stroke: rgb(68, 68, 68); stroke-opacity: 1; stroke-width: 1px;"/><g class="x2tick"><text text-anchor="middle" x="0" y="74.80000000000001" transform="translate(78,0)" style="font-family: 'DejaVu Sans', 'Segoe UI', Helvetica, Arial, sans-serif; font-size: 13px; fill: rgb(26, 26, 26); fill-opacity: 1; white-space: pre;">0</text></g><g class="x2tick"><text text-anchor="middle" x="0" y="74.80000000000001" style="font-family: 'DejaVu Sans', 'Segoe UI', Helvetica, Arial, sans-serif; font-size: 13px; fill: rgb(26, 26, 26); fill-opacity: 1; white-space: pre;" transform="translate(232.38,0)">5</text></g><g class="x2tick"><text text-anchor="middle" x="0" y="74.80000000000001" style="font-family: 'DejaVu Sans', 'Segoe UI', Helvetica, Arial, sans-serif; font-size: 13px; fill: rgb(26, 26, 26); fill-opacity: 1; white-space: pre;" transform="translate(386.75,0)">10</text></g><g class="x2tick"><text text-anchor="middle" x="0" y="74.80000000000001" style="font-family: 'DejaVu Sans', 'Segoe UI', Helvetica, Arial, sans-serif; font-size: 13px; fill: rgb(26, 26, 26); fill-opacity: 1; white-space: pre;" transform="translate(541.13,0)">15</text></g><g class="x2tick"><text text-anchor="middle" x="0" y="74.80000000000001" style="font-family: 'DejaVu Sans', 'Segoe UI', Helvetica, Arial, sans-serif; font-size: 13px; fill: rgb(26, 26, 26); fill-opacity: 1; white-space: pre;" transform="translate(695.5,0)">20</text></g><g class="x2tick"><text text-anchor="middle" x="0" y="74.80000000000001" style="font-family: 'DejaVu Sans', 'Segoe UI', Helvetica, Arial, sans-serif; font-size: 13px; fill: rgb(26, 26, 26); fill-opacity: 1; white-space: pre;" transform="translate(849.88,0)">25</text></g><g class="x2tick"><text text-anchor="middle" x="0" y="74.80000000000001" style="font-family: 'DejaVu Sans', 'Segoe UI', Helvetica, Arial, sans-serif; font-size: 13px; fill: rgb(26, 26, 26); fill-opacity: 1; white-space: pre;" transform="translate(1004.25,0)">30</text></g></g><g class="x2y-y"/></g></g><g class="subplot x2y"/></g><g class="polarlayer"/><g class="smithlayer"/><g class="ternarylayer"/><g class="geolayer"/><g class="funnelarealayer"/><g class="pielayer"/><g class="iciclelayer"/><g class="treemaplayer"/><g class="sunburstlayer"/><g class="glimages"/><defs id="topdefs-8250ea"><g class="clips"/><clipPath id="legend8250ea"><rect width="121" height="30" x="1" y="1"/></clipPath></defs><g class="layer-above"><g class="imagelayer"/><g class="shapelayer"/></g><g class="infolayer"><g class="legend" pointer-events="all" transform="translate(78,575.52)"><rect class="bg" shape-rendering="crispEdges" style="stroke: rgb(204, 204, 204); stroke-opacity: 1; fill: rgb(255, 255, 255); fill-opacity: 0.85; stroke-width: 1px;" width="122" height="31" x="0.5" y="0.5"/><g class="scrollbox" transform="" clip-path="url(#legend8250ea)"><g class="groups" transform=""><g class="traces" transform="translate(0,15.950000000000001)" style="opacity: 1;"><text class="legendtext" text-anchor="start" x="40" y="5.07" style="font-family: 'DejaVu Sans', 'Segoe UI', Helvetica, Arial, sans-serif; font-size: 13px; fill: rgb(26, 26, 26); fill-opacity: 1; white-space: pre;">physics (n=1)</text><g class="layers" style="opacity: 1;"><g class="legendfill"/><g class="legendlines"><path class="js-line" d="M5,0h30" style="fill: none; stroke: rgb(0, 114, 178); stroke-opacity: 1; stroke-width: 2.6px;"/></g><g class="legendsymbols"><g class="legendpoints"/></g></g><rect class="legendtoggle" x="0" y="-9.950000000000001" width="118.716796875" height="19.900000000000002" style="fill: rgb(0, 0, 0); fill-opacity: 0;"/></g></g></g><rect class="scrollbar" rx="20" ry="3" width="0" height="0" style="fill: rgb(128, 139, 164); fill-opacity: 1;" x="0" y="0"/></g><g class="g-gtitle"><text class="gtitle" x="0" y="12.399999999999977" text-anchor="start" dy="0.7em" style="opacity: 1; font-family: 'DejaVu Sans', 'Segoe UI', Helvetica, Arial, sans-serif; font-size: 17px; fill: rgb(26, 26, 26); fill-opacity: 1; white-space: pre;">Drift away from the trajectory's own origin</text></g><g class="g-xtitle"><text class="xtitle" x="572" y="566" text-anchor="middle" style="opacity: 1; font-family: 'DejaVu Sans', 'Segoe UI', Helvetica, Arial, sans-serif; font-size: 16px; fill: rgb(26, 26, 26); fill-opacity: 1; white-space: pre;">generated tokens t</text></g><g class="g-x2title"><text class="x2title" x="572" y="36" text-anchor="middle" style="opacity: 1; font-family: 'DejaVu Sans', 'Segoe UI', Helvetica, Arial, sans-serif; font-size: 16px; fill: rgb(26, 26, 26); fill-opacity: 1; white-space: pre;">window turnovers t/W</text></g><g class="g-ytitle"><text class="ytitle" transform="rotate(-90,36,297)" x="36" y="297" text-anchor="middle" style="opacity: 1; font-family: 'DejaVu Sans', 'Segoe UI', Helvetica, Arial, sans-serif; font-size: 16px; fill: rgb(26, 26, 26); fill-opacity: 1; white-space: pre;">1 − cos(z_k, z_0)</text></g><g class="annotation" data-index="0" style="opacity: 1;"><g class="annotation-text-g" transform="rotate(0,162.38,74.89000000000004)"><g class="cursor-pointer" transform="translate(109,66)"><rect class="bg" x="0.5" y="0.5" width="106" height="17" style="stroke-width: 1px; stroke: rgb(0, 0, 0); stroke-opacity: 0; fill: rgb(0, 0, 0); fill-opacity: 0;"/><text class="annotation-text" text-anchor="middle" x="53.3828125" y="13" style="font-family: 'DejaVu Sans', 'Segoe UI', Helvetica, Arial, sans-serif; font-size: 10px; fill: rgb(176, 0, 32); fill-opacity: 1; white-space: pre;">context horizon (t = W)</text></g></g></g><g class="annotation" data-index="1" style="opacity: 1;"><g class="annotation-text-g" transform="rotate(0,157.75,74.89000000000004)"><g class="cursor-pointer" transform="translate(140,66)"><rect class="bg" x="0.5" y="0.5" width="35" height="17" style="stroke-width: 1px; stroke: rgb(0, 0, 0); stroke-opacity: 0; fill: rgb(0, 0, 0); fill-opacity: 0;"/><text class="annotation-text" text-anchor="middle" x="18.2265625" y="13" style="font-family: 'DejaVu Sans', 'Segoe UI', Helvetica, Arial, sans-serif; font-size: 10px; fill: rgb(176, 0, 32); fill-opacity: 1; white-space: pre;">t = 2W</text></g></g></g><g class="annotation" data-index="2" style="opacity: 1;"><g class="annotation-text-g" transform="rotate(0,188.63,74.89000000000004)"><g class="cursor-pointer" transform="translate(171,66)"><rect class="bg" x="0.5" y="0.5" width="35" height="17" style="stroke-width: 1px; stroke: rgb(0, 0, 0); stroke-opacity: 0; fill: rgb(0, 0, 0); fill-opacity: 0;"/><text class="annotation-text" text-anchor="middle" x="18.2265625" y="13" style="font-family: 'DejaVu Sans', 'Segoe UI', Helvetica, Arial, sans-serif; font-size: 10px; fill: rgb(176, 0, 32); fill-opacity: 1; white-space: pre;">t = 3W</text></g></g></g></g></svg>