<svg class="main-svg" xmlns="http://www.w3.org/2000/svg" xmlns:xlink="http://www.w3.org/1999/xlink" width="2200" height="1240" style="" viewBox="0 0 1100 620"><rect x="0" y="0" width="1100" height="620" style="fill: rgb(255, 255, 255); fill-opacity: 1;"/><defs id="defs-2f4183"><g class="clips"><clipPath id="clip2f4183xyplot" class="plotclip"><rect width="988" height="211.21099999999998"/></clipPath><clipPath id="clip2f4183x2y2plot" class="plotclip"><rect width="988" height="172.80900000000003"/></clipPath><clipPath class="axesclip" id="clip2f4183x"><rect x="78" y="0" width="988" height="620"/></clipPath><clipPath class="axesclip" id="clip2f4183y"><rect x="0" y="86" width="1100" height="211.21099999999998"/></clipPath><clipPath class="axesclip" id="clip2f4183xy"><rect x="78" y="86" width="988" height="211.21099999999998"/></clipPath><clipPath class="axesclip" id="clip2f4183y2"><rect x="0" y="335.19100000000003" width="1100" height="172.80900000000003"/></clipPath><clipPath class="axesclip" id="clip2f4183xy2"><rect x="78" y="335.19100000000003" width="988" height="172.80900000000003"/></clipPath><clipPath class="axesclip" id="clip2f4183x2"><rect x="78" y="0" width="988" height="620"/></clipPath><clipPath class="axesclip" id="clip2f4183x2y"><rect x="78" y="86" width="988" height="211.21099999999998"/></clipPath><clipPath class="axesclip" id="clip2f4183x2y2"><rect x="78" y="335.19100000000003" width="988" height="172.80900000000003"/></clipPath></g><g class="gradients"/><g class="patterns"/></defs><g class="bglayer"/><g class="layer-below"><g class="imagelayer"/><g class="shapelayer"/></g><g class="cartesianlayer"><g class="subplot xy"><g class="layer-subplot"><g class="shapelayer"/><g class="imagelayer"/></g><g class="minor-gridlayer"><g class="x"/><g class="y"/></g><g class="gridlayer"><g class="x"><path class="xgrid crisp" transform="translate(133.02,0)" d="M0,86v211.21099999999998" style="stroke: rgb(232, 232, 232); stroke-opacity: 1; stroke-width: 1px;"/><path class="xgrid crisp" transform="translate(279.35,0)" d="M0,86v211.21099999999998" style="stroke: rgb(232, 232, 232); stroke-opacity: 1; stroke-width: 1px;"/><path class="xgrid crisp" transform="translate(425.67,0)" d="M0,86v211.21099999999998" style="stroke: rgb(232, 232, 232); stroke-opacity: 1; stroke-width: 1px;"/><path class="xgrid crisp" transform="translate(572,0)" d="M0,86v211.21099999999998" style="stroke: rgb(232, 232, 232); stroke-opacity: 1; stroke-width: 1px;"/><path class="xgrid crisp" transform="translate(718.32,0)" d="M0,86v211.21099999999998" style="stroke: rgb(232, 232, 232); stroke-opacity: 1; stroke-width: 1px;"/><path class="xgrid crisp" transform="translate(864.65,0)" d="M0,86v211.21099999999998" style="stroke: rgb(232, 232, 232); stroke-opacity: 1; stroke-width: 1px;"/><path class="xgrid crisp" transform="translate(1010.97,0)" d="M0,86v211.21099999999998" style="stroke: rgb(232, 232, 232); stroke-opacity: 1; stroke-width: 1px;"/></g><g class="y"><path class="ygrid crisp" transform="translate(0,265.95)" d="M78,0h988" style="stroke: rgb(232, 232, 232); stroke-opacity: 1; stroke-width: 1px;"/><path class="ygrid crisp" transform="translate(0,225.15)" d="M78,0h988" style="stroke: rgb(232, 232, 232); stroke-opacity: 1; stroke-width: 1px;"/><path class="ygrid crisp" transform="translate(0,184.34)" d="M78,0h988" style="stroke: rgb(232, 232, 232); stroke-opacity: 1; stroke-width: 1px;"/><path class="ygrid crisp" transform="translate(0,143.54)" d="M78,0h988" style="stroke: rgb(232, 232, 232); stroke-opacity: 1; stroke-width: 1px;"/><path class="ygrid crisp" transform="translate(0,102.73)" d="M78,0h988" style="stroke: rgb(232, 232, 232); stroke-opacity: 1; stroke-width: 1px;"/></g></g><g class="zerolinelayer"/><g class="layer-between"><g class="shapelayer"/><g class="imagelayer"/></g><path class="xlines-below"/><path class="ylines-below"/><g class="overlines-below"/><g class="xaxislayer-below"/><g class="yaxislayer-below"/><g class="overaxes-below"/><g class="overplot"><g class="xy" transform="translate(78,86)" clip-path="url(#clip2f4183xyplot)"><g class="scatterlayer mlayer"><g class="trace scatter tracecb1300" style="stroke-miterlimit: 2; opacity: 1;"><g class="fills"/><g class="errorbars"/><g class="lines"><path class="js-line" d="M55.02,14.94L201.35,31.09L347.67,30.71L640.32,49.99L786.65,51.77L932.97,71.36" style="vector-effect: none; fill: none; stroke: rgb(0, 114, 178); stroke-opacity: 1; stroke-width: 2.4px; opacity: 1;"/></g><g class="points"><path class="point" transform="translate(55.02,14.94)" d="M3.5,0A3.5,3.5 0 1,1 0,-3.5A3.5,3.5 0 0,1 3.5,0Z" style="opacity: 1; stroke-width: 0px; fill: rgb(0, 114, 178); fill-opacity: 1;"/><path class="point" transform="translate(201.35,31.09)" d="M3.5,0A3.5,3.5 0 1,1 0,-3.5A3.5,3.5 0 0,1 3.5,0Z" style="opacity: 1; stroke-width: 0px; fill: rgb(0, 114, 178); fill-opacity: 1;"/><path class="point" transform="translate(347.67,30.71)" d="M3.5,0A3.5,3.5 0 1,1 0,-3.5A3.5,3.5 0 0,1 3.5,0Z" style="opacity: 1; stroke-width: 0px; fill: rgb(0, 114, 178); fill-opacity: 1;"/><path class="point" transform="translate(494,40.57)" d="M3.5,0A3.5,3.5 0 1,1 0,-3.5A3.5,3.5 0 0,1 3.5,0Z" style="opacity: 1; stroke-width: 0px; fill: rgb(0, 114, 178); fill-opacity: 1;"/><path class="point" transform="translate(640.32,49.99)" d="M3.5,0A3.5,3.5 0 1,1 0,-3.5A3.5,3.5 0 0,1 3.5,0Z" style="opacity: 1; stroke-width: 0px; fill: rgb(0, 114, 178); fill-opacity: 1;"/><path class="point" transform="translate(786.65,51.77)" d="M3.5,0A3.5,3.5 0 1,1 0,-3.5A3.5,3.5 0 0,1 3.5,0Z" style="opacity: 1; stroke-width: 0px; fill: rgb(0, 114, 178); fill-opacity: 1;"/><path class="point" transform="translate(932.97,71.36)" d="M3.5,0A3.5,3.5 0 1,1 0,-3.5A3.5,3.5 0 0,1 3.5,0Z" style="opacity: 1; stroke-width: 0px; fill: rgb(0, 114, 178); fill-opacity: 1;"/></g><g class="text"/></g><g class="trace scatter tracedae59a" style="stroke-miterlimit: 2; opacity: 1;"><g class="fills"/><g class="errorbars"/><g class="lines"><path class="js-line" d="M55.02,196.28L347.67,130.43L494,117.35L640.32,121.2L786.65,118.19L932.97,142.4" style="vector-effect: none; fill: none; stroke: rgb(213, 94, 0); stroke-opacity: 1; stroke-width: 2.4px; opacity: 1;"/></g><g class="points"><path class="point" transform="translate(55.02,196.28)" d="M3.5,0A3.5,3.5 0 1,1 0,-3.5A3.5,3.5 0 0,1 3.5,0Z" style="opacity: 1; stroke-width: 0px; fill: rgb(213, 94, 0); fill-opacity: 1;"/><path class="point" transform="translate(201.35,163.14)" d="M3.5,0A3.5,3.5 0 1,1 0,-3.5A3.5,3.5 0 0,1 3.5,0Z" style="opacity: 1; stroke-width: 0px; fill: rgb(213, 94, 0); fill-opacity: 1;"/><path class="point" transform="translate(347.67,130.43)" d="M3.5,0A3.5,3.5 0 1,1 0,-3.5A3.5,3.5 0 0,1 3.5,0Z" style="opacity: 1; stroke-width: 0px; fill: rgb(213, 94, 0); fill-opacity: 1;"/><path class="point" transform="translate(494,117.35)" d="M3.5,0A3.5,3.5 0 1,1 0,-3.5A3.5,3.5 0 0,1 3.5,0Z" style="opacity: 1; stroke-width: 0px; fill: rgb(213, 94, 0); fill-opacity: 1;"/><path class="point" transform="translate(640.32,121.2)" d="M3.5,0A3.5,3.5 0 1,1 0,-3.5A3.5,3.5 0 0,1 3.5,0Z" style="opacity: 1; stroke-width: 0px; fill: rgb(213, 94, 0); fill-opacity: 1;"/><path class="point" transform="translate(786.65,118.19)" d="M3.5,0A3.5,3.5 0 1,1 0,-3.5A3.5,3.5 0 0,1 3.5,0Z" style="opacity: 1; stroke-width: 0px; fill: rgb(213, 94, 0); fill-opacity: 1;"/><path class="point" transform="translate(932.97,142.4)" d="M3.5,0A3.5,3.5 0 1,1 0,-3.5A3.5,3.5 0 0,1 3.5,0Z" style="opacity: 1; stroke-width: 0px; fill: rgb(213, 94, 0); fill-opacity: 1;"/></g><g class="text"/></g></g></g></g><g class="zerolinelayer-above"/><path class="xlines-above crisp" d="" style="fill: none; stroke-width: 1px; stroke: rgb(0, 0, 0); stroke-opacity: 0;"/><path class="ylines-above crisp" d="" style="fill: none; stroke-width: 1px; stroke: rgb(0, 0, 0); stroke-opacity: 0;"/><g class="overlines-above"/><g class="xaxislayer-above"><path class="xtick ticks crisp" d="M0,298.211v5" transform="translate(133.02,0)" style="stroke: rgb(68, 68, 68); stroke-opacity: 1; stroke-width: 1px;"/><path class="xtick ticks crisp" d="M0,298.211v5" transform="translate(279.35,0)" style="stroke: rgb(68, 68, 68); stroke-opacity: 1; stroke-width: 1px;"/><path class="xtick ticks crisp" d="M0,298.211v5" transform="translate(425.67,0)" style="stroke: rgb(68, 68, 68); stroke-opacity: 1; stroke-width: 1px;"/><path class="xtick ticks crisp" d="M0,298.211v5" transform="translate(572,0)" style="stroke: rgb(68, 68, 68); stroke-opacity: 1; stroke-width: 1px;"/><path class="xtick ticks crisp" d="M0,298.211v5" transform="translate(718.32,0)" style="stroke: rgb(68, 68, 68); stroke-opacity: 1; stroke-width: 1px;"/><path class="xtick ticks crisp" d="M0,298.211v5" transform="translate(864.65,0)" style="stroke: rgb(68, 68, 68); stroke-opacity: 1; stroke-width: 1px;"/><path class="xtick ticks crisp" d="M0,298.211v5" transform="translate(1010.97,0)" style="stroke: rgb(68, 68, 68); stroke-opacity: 1; stroke-width: 1px;"/></g><g class="yaxislayer-above"><path class="ytick ticks crisp" d="M77,0h-5" transform="translate(0,265.95)" style="stroke: rgb(68, 68, 68); stroke-opacity: 1; stroke-width: 1px;"/><path class="ytick ticks crisp" d="M77,0h-5" transform="translate(0,225.15)" style="stroke: rgb(68, 68, 68); stroke-opacity: 1; stroke-width: 1px;"/><path class="ytick ticks crisp" d="M77,0h-5" transform="translate(0,184.34)" style="stroke: rgb(68, 68, 68); stroke-opacity: 1; stroke-width: 1px;"/><path class="ytick ticks crisp" d="M77,0h-5" transform="translate(0,143.54)" style="stroke: rgb(68, 68, 68); stroke-opacity: 1; stroke-width: 1px;"/><path class="ytick ticks crisp" d="M77,0h-5" transform="translate(0,102.73)" style="stroke: rgb(68, 68, 68); stroke-opacity: 1; stroke-width: 1px;"/><g class="ytick"><text text-anchor="end" x="69.4" y="4.55" transform="translate(0,265.95)" style="font-family: 'DejaVu Sans', 'Segoe UI', Helvetica, Arial, sans-serif; font-size: 13px; fill: rgb(26, 26, 26); fill-opacity: 1; white-space: pre;">0.4</text></g><g class="ytick"><text text-anchor="end" x="69.4" y="4.55" style="font-family: 'DejaVu Sans', 'Segoe UI', Helvetica, Arial, sans-serif; font-size: 13px; fill: rgb(26, 26, 26); fill-opacity: 1; white-space: pre;" transform="translate(0,225.15)">0.5</text></g><g class="ytick"><text text-anchor="end" x="69.4" y="4.55" style="font-family: 'DejaVu Sans', 'Segoe UI', Helvetica, Arial, sans-serif; font-size: 13px; fill: rgb(26, 26, 26); fill-opacity: 1; white-space: pre;" transform="translate(0,184.34)">0.6</text></g><g class="ytick"><text text-anchor="end" x="69.4" y="4.55" style="font-family: 'DejaVu Sans', 'Segoe UI', Helvetica, Arial, sans-serif; font-size: 13px; fill: rgb(26, 26, 26); fill-opacity: 1; white-space: pre;" transform="translate(0,143.54)">0.7</text></g><g class="ytick"><text text-anchor="end" x="69.4" y="4.55" style="font-family: 'DejaVu Sans', 'Segoe UI', Helvetica, Arial, sans-serif; font-size: 13px; fill: rgb(26, 26, 26); fill-opacity: 1; white-space: pre;" transform="translate(0,102.73)">0.8</text></g></g><g class="overaxes-above"/></g><g class="subplot x2y2"><g class="layer-subplot"><g class="shapelayer"/><g class="imagelayer"/></g><g class="minor-gridlayer"><g class="x2"/><g class="y2"/></g><g class="gridlayer"><g class="x2"><path class="x2grid crisp" transform="translate(133.02,0)" d="M0,335.19100000000003v172.80900000000003" style="stroke: rgb(232, 232, 232); stroke-opacity: 1; stroke-width: 1px;"/><path class="x2grid crisp" transform="translate(279.35,0)" d="M0,335.19100000000003v172.80900000000003" style="stroke: rgb(232, 232, 232); stroke-opacity: 1; stroke-width: 1px;"/><path class="x2grid crisp" transform="translate(425.67,0)" d="M0,335.19100000000003v172.80900000000003" style="stroke: rgb(232, 232, 232); stroke-opacity: 1; stroke-width: 1px;"/><path class="x2grid crisp" transform="translate(572,0)" d="M0,335.19100000000003v172.80900000000003" style="stroke: rgb(232, 232, 232); stroke-opacity: 1; stroke-width: 1px;"/><path class="x2grid crisp" transform="translate(718.32,0)" d="M0,335.19100000000003v172.80900000000003" style="stroke: rgb(232, 232, 232); stroke-opacity: 1; stroke-width: 1px;"/><path class="x2grid crisp" transform="translate(864.65,0)" d="M0,335.19100000000003v172.80900000000003" style="stroke: rgb(232, 232, 232); stroke-opacity: 1; stroke-width: 1px;"/><path class="x2grid crisp" transform="translate(1010.97,0)" d="M0,335.19100000000003v172.80900000000003" style="stroke: rgb(232, 232, 232); stroke-opacity: 1; stroke-width: 1px;"/></g><g class="y2"><path class="y2grid crisp" transform="translate(0,444.92100000000005)" d="M78,0h988" style="stroke: rgb(232, 232, 232); stroke-opacity: 1; stroke-width: 1px;"/><path class="y2grid crisp" transform="translate(0,382.54100000000005)" d="M78,0h988" style="stroke: rgb(232, 232, 232); stroke-opacity: 1; stroke-width: 1px;"/></g></g><g class="zerolinelayer"/><g class="layer-between"><g class="shapelayer"/><g class="imagelayer"/></g><path class="xlines-below"/><path class="ylines-below"/><g class="overlines-below"/><g class="xaxislayer-below"/><g class="yaxislayer-below"/><g class="overaxes-below"/><g class="overplot"><g class="x2y2" transform="translate(78,335.19100000000003)" clip-path="url(#clip2f4183x2y2plot)"><g class="scatterlayer mlayer"><g class="trace scatter trace3db418" style="stroke-miterlimit: 2; opacity: 1;"><g class="fills"><g><path class="js-fill" d="M55.02,12.39L201.35,48.18L347.67,63.44L494,76.84L640.32,77.36L786.65,83.94L932.97,48.09L932.97,160.03L786.65,152.49L640.32,151.77L494,146.93L347.67,129.51L201.35,93.86L55.02,56.08Z" style="fill: rgb(0, 114, 178); fill-opacity: 0.18; stroke-width: 0;"/></g></g><g class="errorbars"/><g class="lines"><path class="js-line" d="M55.02,12.39L201.35,48.18L347.67,63.44L494,76.84L640.32,77.36L786.65,83.94L932.97,48.09L932.97,160.03L786.65,152.49L640.32,151.77L494,146.93L347.67,129.51L201.35,93.86L55.02,56.08" style="vector-effect: none; fill: none; stroke: rgb(0, 158, 115); stroke-opacity: 1; stroke-width: 0px; opacity: 1;"/></g><g class="points"><path class="point" transform="translate(55.02,12.39)" d="M3,0A3,3 0 1,1 0,-3A3,3 0 0,1 3,0Z" style="opacity: 1; stroke-width: 0px; fill: rgb(0, 158, 115); fill-opacity: 1;"/><path class="point" transform="translate(201.35,48.18)" d="M3,0A3,3 0 1,1 0,-3A3,3 0 0,1 3,0Z" style="opacity: 1; stroke-width: 0px; fill: rgb(0, 158, 115); fill-opacity: 1;"/><path class="point" transform="translate(347.67,63.44)" d="M3,0A3,3 0 1,1 0,-3A3,3 0 0,1 3,0Z" style="opacity: 1; stroke-width: 0px; fill: rgb(0, 158, 115); fill-opacity: 1;"/><path class="point" transform="translate(494,76.84)" d="M3,0A3,3 0 1,1 0,-3A3,3 0 0,1 3,0Z" style="opacity: 1; stroke-width: 0px; fill: rgb(0, 158, 115); fill-opacity: 1;"/><path class="point" transform="translate(640.32,77.36)" d="M3,0A3,3 0 1,1 0,-3A3,3 0 0,1 3,0Z" style="opacity: 1; stroke-width: 0px; fill: rgb(0, 158, 115); fill-opacity: 1;"/><path class="point" transform="translate(786.65,83.94)" d="M3,0A3,3 0 1,1 0,-3A3,3 0 0,1 3,0Z" style="opacity: 1; stroke-width: 0px; fill: rgb(0, 158, 115); fill-opacity: 1;"/><path class="point" transform="translate(932.97,48.09)" d="M3,0A3,3 0 1,1 0,-3A3,3 0 0,1 3,0Z" style="opacity: 1; stroke-width: 0px; fill: rgb(0, 158, 115); fill-opacity: 1;"/><path class="point" transform="translate(932.97,160.03)" d="M3,0A3,3 0 1,1 0,-3A3,3 0 0,1 3,0Z" style="opacity: 1; stroke-width: 0px; fill: rgb(0, 158, 115); fill-opacity: 1;"/><path class="point" transform="translate(786.65,152.49)" d="M3,0A3,3 0 1,1 0,-3A3,3 0 0,1 3,0Z" style="opacity: 1; stroke-width: 0px; fill: rgb(0, 158, 115); fill-opacity: 1;"/><path class="point" transform="translate(640.32,151.77)" d="M3,0A3,3 0 1,1 0,-3A3,3 0 0,1 3,0Z" style="opacity: 1; stroke-width: 0px; fill: rgb(0, 158, 115); fill-opacity: 1;"/><path class="point" transform="translate(494,146.93)" d="M3,0A3,3 0 1,1 0,-3A3,3 0 0,1 3,0Z" style="opacity: 1; stroke-width: 0px; fill: rgb(0, 158, 115); fill-opacity: 1;"/><path class="point" transform="translate(347.67,129.51)" d="M3,0A3,3 0 1,1 0,-3A3,3 0 0,1 3,0Z" style="opacity: 1; stroke-width: 0px; fill: rgb(0, 158, 115); fill-opacity: 1;"/><path class="point" transform="translate(201.35,93.86)" d="M3,0A3,3 0 1,1 0,-3A3,3 0 0,1 3,0Z" style="opacity: 1; stroke-width: 0px; fill: rgb(0, 158, 115); fill-opacity: 1;"/><path class="point" transform="translate(55.02,56.08)" d="M3,0A3,3 0 1,1 0,-3A3,3 0 0,1 3,0Z" style="opacity: 1; stroke-width: 0px; fill: rgb(0, 158, 115); fill-opacity: 1;"/></g><g class="text"/></g><g class="trace scatter trace3905ef" style="stroke-miterlimit: 2; opacity: 1;"><g class="fills"/><g class="errorbars"/><g class="lines"><path class="js-line" d="M55.02,33.49L201.35,71.17L347.67,95.88L494,113.41L640.32,117.67L786.65,121.34L932.97,117.8" style="vector-effect: none; fill: none; stroke: rgb(0, 114, 178); stroke-opacity: 1; stroke-width: 2.8px; opacity: 1;"/></g><g class="points"><path class="point" transform="translate(55.02,33.49)" d="M4.5,0A4.5,4.5 0 1,1 0,-4.5A4.5,4.5 0 0,1 4.5,0Z" style="opacity: 1; stroke-width: 0px; fill: rgb(0, 114, 178); fill-opacity: 1;"/><path class="point" transform="translate(201.35,71.17)" d="M4.5,0A4.5,4.5 0 1,1 0,-4.5A4.5,4.5 0 0,1 4.5,0Z" style="opacity: 1; stroke-width: 0px; fill: rgb(0, 114, 178); fill-opacity: 1;"/><path class="point" transform="translate(347.67,95.88)" d="M4.5,0A4.5,4.5 0 1,1 0,-4.5A4.5,4.5 0 0,1 4.5,0Z" style="opacity: 1; stroke-width: 0px; fill: rgb(0, 114, 178); fill-opacity: 1;"/><path class="point" transform="translate(494,113.41)" d="M4.5,0A4.5,4.5 0 1,1 0,-4.5A4.5,4.5 0 0,1 4.5,0Z" style="opacity: 1; stroke-width: 0px; fill: rgb(0, 114, 178); fill-opacity: 1;"/><path class="point" transform="translate(640.32,117.67)" d="M4.5,0A4.5,4.5 0 1,1 0,-4.5A4.5,4.5 0 0,1 4.5,0Z" style="opacity: 1; stroke-width: 0px; fill: rgb(0, 114, 178); fill-opacity: 1;"/><path class="point" transform="translate(786.65,121.34)" d="M4.5,0A4.5,4.5 0 1,1 0,-4.5A4.5,4.5 0 0,1 4.5,0Z" style="opacity: 1; stroke-width: 0px; fill: rgb(0, 114, 178); fill-opacity: 1;"/><path class="point" transform="translate(932.97,117.8)" d="M4.5,0A4.5,4.5 0 1,1 0,-4.5A4.5,4.5 0 0,1 4.5,0Z" style="opacity: 1; stroke-width: 0px; fill: rgb(0, 114, 178); fill-opacity: 1;"/></g><g class="text"/></g></g></g></g><g class="zerolinelayer-above"/><path class="xlines-above crisp" d="" style="fill: none; stroke-width: 1px; stroke: rgb(0, 0, 0); stroke-opacity: 0;"/><path class="ylines-above crisp" d="" style="fill: none; stroke-width: 1px; stroke: rgb(0, 0, 0); stroke-opacity: 0;"/><g class="overlines-above"/><g class="xaxislayer-above"><path class="x2tick ticks crisp" d="M0,509.00000000000006v5" transform="translate(133.02,0)" style="stroke: rgb(68, 68, 68); stroke-opacity: 1; stroke-width: 1px;"/><path class="x2tick ticks crisp" d="M0,509.00000000000006v5" transform="translate(279.35,0)" style="stroke: rgb(68, 68, 68); stroke-opacity: 1; stroke-width: 1px;"/><path class="x2tick ticks crisp" d="M0,509.00000000000006v5" transform="translate(425.67,0)" style="stroke: rgb(68, 68, 68); stroke-opacity: 1; stroke-width: 1px;"/><path class="x2tick ticks crisp" d="M0,509.00000000000006v5" transform="translate(572,0)" style="stroke: rgb(68, 68, 68); stroke-opacity: 1; stroke-width: 1px;"/><path class="x2tick ticks crisp" d="M0,509.00000000000006v5" transform="translate(718.32,0)" style="stroke: rgb(68, 68, 68); stroke-opacity: 1; stroke-width: 1px;"/><path class="x2tick ticks crisp" d="M0,509.00000000000006v5" transform="translate(864.65,0)" style="stroke: rgb(68, 68, 68); stroke-opacity: 1; stroke-width: 1px;"/><path class="x2tick ticks crisp" d="M0,509.00000000000006v5" transform="translate(1010.97,0)" style="stroke: rgb(68, 68, 68); stroke-opacity: 1; stroke-width: 1px;"/><g class="x2tick"><text text-anchor="middle" x="0" y="529.6" transform="translate(133.02,0)" style="font-family: 'DejaVu Sans', 'Segoe UI', Helvetica, Arial, sans-serif; font-size: 13px; fill: rgb(26, 26, 26); fill-opacity: 1; white-space: pre;">0</text></g><g class="x2tick"><text text-anchor="middle" x="0" y="529.6" style="font-family: 'DejaVu Sans', 'Segoe UI', Helvetica, Arial, sans-serif; font-size: 13px; fill: rgb(26, 26, 26); fill-opacity: 1; white-space: pre;" transform="translate(279.35,0)">2</text></g><g class="x2tick"><text text-anchor="middle" x="0" y="529.6" style="font-family: 'DejaVu Sans', 'Segoe UI', Helvetica, Arial, sans-serif; font-size: 13px; fill: rgb(26, 26, 26); fill-opacity: 1; white-space: pre;" transform="translate(425.67,0)">4</text></g><g class="x2tick"><text text-anchor="middle" x="0" y="529.6" style="font-family: 'DejaVu Sans', 'Segoe UI', Helvetica, Arial, sans-serif; font-size: 13px; fill: rgb(26, 26, 26); fill-opacity: 1; white-space: pre;" transform="translate(572,0)">6</text></g><g class="x2tick"><text text-anchor="middle" x="0" y="529.6" style="font-family: 'DejaVu Sans', 'Segoe UI', Helvetica, Arial, sans-serif; font-size: 13px; fill: rgb(26, 26, 26); fill-opacity: 1; white-space: pre;" transform="translate(718.32,0)">8</text></g><g class="x2tick"><text text-anchor="middle" x="0" y="529.6" style="font-family: 'DejaVu Sans', 'Segoe UI', Helvetica, Arial, sans-serif; font-size: 13px; fill: rgb(26, 26, 26); fill-opacity: 1; white-space: pre;" transform="translate(864.65,0)">10</text></g><g class="x2tick"><text text-anchor="middle" x="0" y="529.6" style="font-family: 'DejaVu Sans', 'Segoe UI', Helvetica, Arial, sans-serif; font-size: 13px; fill: rgb(26, 26, 26); fill-opacity: 1; white-space: pre;" transform="translate(1010.97,0)">12</text></g></g><g class="yaxislayer-above"><path class="y2tick ticks crisp" d="M77,0h-5" transform="translate(0,507.30100000000004)" style="stroke: rgb(68, 68, 68); stroke-opacity: 1; stroke-width: 1px;"/><path class="y2tick ticks crisp" d="M77,0h-5" transform="translate(0,444.92100000000005)" style="stroke: rgb(68, 68, 68); stroke-opacity: 1; stroke-width: 1px;"/><path class="y2tick ticks crisp" d="M77,0h-5" transform="translate(0,382.54100000000005)" style="stroke: rgb(68, 68, 68); stroke-opacity: 1; stroke-width: 1px;"/><g class="y2tick"><text text-anchor="end" x="69.4" y="4.55" transform="translate(0,507.30100000000004)" style="font-family: 'DejaVu Sans', 'Segoe UI', Helvetica, Arial, sans-serif; font-size: 13px; fill: rgb(26, 26, 26); fill-opacity: 1; white-space: pre;">0</text></g><g class="y2tick"><text text-anchor="end" x="69.4" y="4.55" style="font-family: 'DejaVu Sans', 'Segoe UI', Helvetica, Arial, sans-serif; font-size: 13px; fill: rgb(26, 26, 26); fill-opacity: 1; white-space: pre;" transform="translate(0,444.92100000000005)">0.2</text></g><g class="y2tick"><text text-anchor="end" x="69.4" y="4.55" style="font-family: 'DejaVu Sans', 'Segoe UI', Helvetica, Arial, sans-serif; font-size: 13px; fill: rgb(26, 26, 26); fill-opacity: 1; white-space: pre;" transform="translate(0,382.54100000000005)">0.4</text></g></g><g class="overaxes-above"/></g></g><g class="polarlayer"/><g class="smithlayer"/><g class="ternarylayer"/><g class="geolayer"/><g class="funnelarealayer"/><g class="pielayer"/><g class="iciclelayer"/><g class="treemaplayer"/><g class="sunburstlayer"/><g class="glimages"/><defs id="topdefs-2f4183"><g class="clips"/><clipPath id="legend2f4183"><rect width="669" height="30" x="1" y="1"/></clipPath></defs><g class="layer-above"><g class="imagelayer"/><g class="shapelayer"><g class="shape-group" data-index="0" clip-path="url(#clip2f4183y2)"><path data-index="0" fill-rule="evenodd" d="M78,507.30100000000004L1066,507.30100000000004" style="opacity: 1; stroke: rgb(153, 153, 153); stroke-opacity: 1; fill: rgb(0, 0, 0); fill-opacity: 0; stroke-dasharray: 9px, 9px; stroke-width: 1.4px;"/></g><g class="shape-group" data-index="1" clip-path="url(#clip2f4183x)"><path data-index="1" fill-rule="evenodd" d="M206.19,297.211L206.19,86" style="opacity: 1; stroke: rgb(176, 0, 32); stroke-opacity: 1; fill: rgb(0, 0, 0); fill-opacity: 0; stroke-width: 1.8px;"/></g><g class="shape-group" data-index="2" clip-path="url(#clip2f4183x2)"><path data-index="2" fill-rule="evenodd" d="M206.19,508.00000000000006L206.19,335.19100000000003" style="opacity: 1; stroke: rgb(176, 0, 32); stroke-opacity: 1; fill: rgb(0, 0, 0); fill-opacity: 0; stroke-width: 1.8px;"/></g></g></g><g class="infolayer"><g class="legend" pointer-events="all" transform="translate(78,575.52)"><rect class="bg" shape-rendering="crispEdges" style="stroke: rgb(204, 204, 204); stroke-opacity: 1; fill: rgb(255, 255, 255); fill-opacity: 0.85; stroke-width: 1px;" width="670" height="31" x="0.5" y="0.5"/><g class="scrollbox" transform="" clip-path="url(#legend2f4183)"><g class="groups"><g class="traces" transform="translate(1,15.950000000000001)" style="opacity: 1;"><text class="legendtext" text-anchor="start" x="40" y="5.07" style="font-family: 'DejaVu Sans', 'Segoe UI', Helvetica, Arial, sans-serif; font-size: 13px; fill: rgb(26, 26, 26); fill-opacity: 1; white-space: pre;">different semantic seeds</text><g class="layers" style="opacity: 1;"><g class="legendfill"/><g class="legendlines"><path class="js-line" d="M5,0h30" style="fill: none; stroke: rgb(0, 114, 178); stroke-opacity: 1; stroke-width: 2.4px;"/></g><g class="legendsymbols"><g class="legendpoints"><path class="scatterpts" transform="translate(20,0)" d="M3.5,0A3.5,3.5 0 1,1 0,-3.5A3.5,3.5 0 0,1 3.5,0Z" style="opacity: 1; stroke-width: 0px; fill: rgb(0, 114, 178); fill-opacity: 1;"/></g></g></g><rect class="legendtoggle" x="0" y="-9.950000000000001" width="203.494140625" height="19.900000000000002" style="fill: rgb(0, 0, 0); fill-opacity: 0;"/></g><g class="traces" transform="translate(206.994140625,15.950000000000001)" style="opacity: 1;"><text class="legendtext" text-anchor="start" x="40" y="5.07" style="font-family: 'DejaVu Sans', 'Segoe UI', Helvetica, Arial, sans-serif; font-size: 13px; fill: rgb(26, 26, 26); fill-opacity: 1; white-space: pre;">same seed, different sampling (control)</text><g class="layers" style="opacity: 1;"><g class="legendfill"/><g class="legendlines"><path class="js-line" d="M5,0h30" style="fill: none; stroke: rgb(213, 94, 0); stroke-opacity: 1; stroke-width: 2.4px;"/></g><g class="legendsymbols"><g class="legendpoints"><path class="scatterpts" transform="translate(20,0)" d="M3.5,0A3.5,3.5 0 1,1 0,-3.5A3.5,3.5 0 0,1 3.5,0Z" style="opacity: 1; stroke-width: 0px; fill: rgb(213, 94, 0); fill-opacity: 1;"/></g></g></g><rect class="legendtoggle" x="0" y="-9.950000000000001" width="299.375" height="19.900000000000002" style="fill: rgb(0, 0, 0); fill-opacity: 0;"/></g><g class="traces" transform="translate(508.869140625,15.950000000000001)" style="opacity: 1;"><text class="legendtext" text-anchor="start" x="40" y="5.07" style="font-family: 'DejaVu Sans', 'Segoe UI', Helvetica, Arial, sans-serif; font-size: 13px; fill: rgb(26, 26, 26); fill-opacity: 1; white-space: pre;">95% CI</text><g class="layers" style="opacity: 1;"><g class="legendfill"><path class="js-fill" d="M5,0h30v6h-30z" style="stroke-width: 0; fill: rgb(0, 114, 178); fill-opacity: 0.18;"/></g><g class="legendlines"><path class="js-line" d="M5,0h30" style="fill: none; stroke: rgb(0, 158, 115); stroke-opacity: 1; stroke-width: 0px;"/></g><g class="legendsymbols"><g class="legendpoints"><path class="scatterpts" transform="translate(20,0)" d="M3,0A3,3 0 1,1 0,-3A3,3 0 0,1 3,0Z" style="opacity: 1; stroke-width: 0px; fill: rgb(0, 158, 115); fill-opacity: 1;"/></g></g></g><rect class="legendtoggle" x="0" y="-9.950000000000001" width="88.453125" height="19.900000000000002" style="fill: rgb(0, 0, 0); fill-opacity: 0;"/></g><g class="traces" transform="translate(599.822265625,15.950000000000001)" style="opacity: 1;"><text class="legendtext" text-anchor="start" x="40" y="5.07" style="font-family: 'DejaVu Sans', 'Segoe UI', Helvetica, Arial, sans-serif; font-size: 13px; fill: rgb(26, 26, 26); fill-opacity: 1; white-space: pre;">gap</text><g class="layers" style="opacity: 1;"><g class="legendfill"/><g class="legendlines"><path class="js-line" d="M5,0h30" style="fill: none; stroke: rgb(0, 114, 178); stroke-opacity: 1; stroke-width: 2.8px;"/></g><g class="legendsymbols"><g class="legendpoints"><path class="scatterpts" transform="translate(20,0)" d="M4.5,0A4.5,4.5 0 1,1 0,-4.5A4.5,4.5 0 0,1 4.5,0Z" style="opacity: 1; stroke-width: 0px; fill: rgb(0, 114, 178); fill-opacity: 1;"/></g></g></g><rect class="legendtoggle" x="0" y="-9.950000000000001" width="66.984375" height="19.900000000000002" style="fill: rgb(0, 0, 0); fill-opacity: 0;"/></g></g></g><rect class="scrollbar" rx="20" ry="3" width="0" height="0" style="fill: rgb(128, 139, 164); fill-opacity: 1;" x="0" y="0"/></g><g class="g-gtitle"><text class="gtitle" x="0" y="12.399999999999977" text-anchor="start" dy="0.7em" style="opacity: 1; font-family: 'DejaVu Sans', 'Segoe UI', Helvetica, Arial, sans-serif; font-size: 17px; fill: rgb(26, 26, 26); fill-opacity: 1; white-space: pre;"><tspan class="line" dy="0em" x="0" y="12.399999999999977">Does seed identity survive the context horizon? — qwen3-embed-8b</tspan><tspan class="line" dy="1.3em" x="0" y="12.399999999999977">​<tspan style="font-size:70%" dy="0.3em">W = 4,096 tokens. Post-horizon mean gap 0.2113, trend -0.01437 per turnover. Separated at the last observed band.</tspan><tspan dy="-0.21em">​</tspan></tspan></text></g><g class="g-xtitle"/><g class="g-x2title"><text class="x2title" x="572" y="566" text-anchor="middle" style="opacity: 1; font-family: 'DejaVu Sans', 'Segoe UI', Helvetica, Arial, sans-serif; font-size: 16px; fill: rgb(26, 26, 26); fill-opacity: 1; white-space: pre;">window turnovers t/W</text></g><g class="g-ytitle"><text class="ytitle" transform="rotate(-90,36,191.6055)" x="36" y="191.6055" text-anchor="middle" style="opacity: 1; font-family: 'DejaVu Sans', 'Segoe UI', Helvetica, Arial, sans-serif; font-size: 16px; fill: rgb(26, 26, 26); fill-opacity: 1; white-space: pre;">1 − cos</text></g><g class="g-y2title"><text class="y2title" transform="rotate(-90,36,421.5955)" x="36" y="421.5955" text-anchor="middle" style="opacity: 1; font-family: 'DejaVu Sans', 'Segoe UI', Helvetica, Arial, sans-serif; font-size: 16px; fill: rgb(26, 26, 26); fill-opacity: 1; white-space: pre;">gap</text></g><g class="annotation" data-index="0" style="opacity: 1;"><g class="annotation-text-g" transform="rotate(0,572,74.49999999999999)"><g class="cursor-pointer" transform="translate(407,63)"><rect class="bg" x="0.5" y="0.5" width="329" height="22" style="stroke-width: 1px; stroke: rgb(0, 0, 0); stroke-opacity: 0; fill: rgb(0, 0, 0); fill-opacity: 0;"/><text class="annotation-text" text-anchor="middle" x="164.9296875" y="17" style="font-family: 'DejaVu Sans', 'Segoe UI', Helvetica, Arial, sans-serif; font-size: 16px; fill: rgb(26, 26, 26); fill-opacity: 1; white-space: pre;">cosine distance between trajectory pairs</text></g></g></g><g class="annotation" data-index="1" style="opacity: 1;"><g class="annotation-text-g" transform="rotate(0,572,323.19100000000003)"><g class="cursor-pointer" transform="translate(279,311)"><rect class="bg" x="0.5" y="0.5" width="586" height="23" style="stroke-width: 1px; stroke: rgb(0, 0, 0); stroke-opacity: 0; fill: rgb(0, 0, 0); fill-opacity: 0;"/><text class="annotation-text" text-anchor="middle" x="293.625" y="17" style="font-family: 'DejaVu Sans', 'Segoe UI', Helvetica, Arial, sans-serif; font-size: 16px; fill: rgb(26, 26, 26); fill-opacity: 1; white-space: pre;">contrast: D_between − D_within, with 95% bootstrap CI over trajectories</text></g></g></g><g class="annotation" data-index="2" style="opacity: 1;"><g class="annotation-text-g" transform="rotate(0,247.19,93.5)"><g class="cursor-pointer" transform="translate(206,86)"><rect class="bg" x="0.5" y="0.5" width="81" height="14" style="stroke-width: 1px; stroke: rgb(0, 0, 0); stroke-opacity: 0; fill: rgb(0, 0, 0); fill-opacity: 0;"/><text class="annotation-text" text-anchor="middle" x="40.9609375" y="11" style="font-family: 'DejaVu Sans', 'Segoe UI', Helvetica, Arial, sans-serif; font-size: 10px; fill: rgb(176, 0, 32); fill-opacity: 1; white-space: pre;">context horizon</text></g></g></g><g class="annotation" data-index="3" style="opacity: 1;"><g class="annotation-text-g" transform="rotate(0,247.19,342.69100000000003)"><g class="cursor-pointer" transform="translate(206,335)"><rect class="bg" x="0.5" y="0.5" width="81" height="14" style="stroke-width: 1px; stroke: rgb(0, 0, 0); stroke-opacity: 0; fill: rgb(0, 0, 0); fill-opacity: 0;"/><text class="annotation-text" text-anchor="middle" x="40.9609375" y="11" style="font-family: 'DejaVu Sans', 'Segoe UI', Helvetica, Arial, sans-serif; font-size: 10px; fill: rgb(176, 0, 32); fill-opacity: 1; white-space: pre;">context horizon</text></g></g></g></g></svg>